<svg width="400" height="100" viewBox="0 0 400 100" fill="none" xmlns="http://www.w3.org/2000/svg">
<rect width="400" height="100" fill="white"/>
<path d="M36.9938 21V27.0923C35.3138 27.0923 34.0031 27.3323 33.0615 27.8123C32.12 28.2738 31.7138 29.2062 31.8431 30.6092L32.7015 38.7785C32.9231 40.8462 32.6923 42.5169 32.0092 43.7908C31.3446 45.0646 30.32 46.0431 28.9354 46.7262C27.5692 47.3908 25.9538 47.8615 24.0892 48.1385C26.0646 48.4338 27.7354 48.9138 29.1015 49.5785C30.4677 50.2431 31.4646 51.2031 32.0923 52.4585C32.72 53.7138 32.9231 55.3938 32.7015 57.4985L31.8431 65.6677C31.7138 67.0708 32.12 68.0031 33.0615 68.4646C34.0031 68.9446 35.3138 69.1846 36.9938 69.1846V75.2769C31.8985 75.2769 28.3169 74.5015 26.2492 72.9508C24.2 71.4185 23.3692 68.7877 23.7569 65.0585L24.5877 57.1385C24.7354 55.7354 24.4954 54.6369 23.8677 53.8431C23.2585 53.0492 22.3538 52.4954 21.1538 52.1815C19.9538 51.8492 18.5692 51.6831 17 51.6831V44.5938C18.5508 44.5938 19.9262 44.4369 21.1262 44.1231C22.3262 43.7908 23.24 43.2277 23.8677 42.4338C24.4954 41.64 24.7354 40.5415 24.5877 39.1385L23.7569 31.2738C23.3508 27.4708 24.1815 24.8123 26.2492 23.2985C28.3169 21.7662 31.8985 21 36.9938 21Z" fill="#97A2B7"/>
<path d="M88.7038 36.0923V67.5231H79.6207V36.0923H68.8484V29.1415H99.9192L98.9776 36.0923H88.7038Z" fill="black"/>
<path d="M117.44 37.1446C120.468 37.1446 123.043 37.7908 125.166 39.0831C127.29 40.3754 128.914 42.1938 130.04 44.5385C131.166 46.8646 131.73 49.5969 131.73 52.7354C131.73 57.6462 130.474 61.4954 127.963 64.2831C125.453 67.0708 121.945 68.4646 117.44 68.4646C112.936 68.4646 109.428 67.0892 106.917 64.3385C104.406 61.5877 103.151 57.7385 103.151 52.7908C103.151 49.6708 103.714 46.9385 104.84 44.5938C105.985 42.2492 107.619 40.4215 109.742 39.1108C111.883 37.8 114.45 37.1446 117.44 37.1446ZM117.44 43.5969C115.65 43.5969 114.32 44.3354 113.453 45.8123C112.603 47.2708 112.179 49.5969 112.179 52.7908C112.179 56.04 112.603 58.3938 113.453 59.8523C114.32 61.3108 115.65 62.04 117.44 62.04C119.231 62.04 120.551 61.3108 121.4 59.8523C122.268 58.3938 122.702 56.0215 122.702 52.7354C122.702 49.56 122.268 47.2431 121.4 45.7846C120.551 44.3262 119.231 43.5969 117.44 43.5969Z" fill="black"/>
<path d="M146.675 25.5138V67.5231H137.924V26.4277L146.675 25.5138ZM165.838 38.1138L156.174 51.1292L166.641 67.5231H156.672L147.008 51.4062L156.672 38.1138H165.838Z" fill="black"/>
<path d="M198.95 38.1138L189.147 67.5231C187.855 71.4185 185.898 74.3815 183.276 76.4123C180.673 78.4431 177.138 79.5877 172.67 79.8461L171.673 73.6708C173.612 73.4308 175.172 73.0708 176.353 72.5908C177.553 72.1108 178.513 71.4554 179.233 70.6246C179.972 69.8123 180.609 68.7785 181.144 67.5231H178.153L168.821 38.1138H178.07L183.775 61.9292L189.978 38.1138H198.95Z" fill="black"/>
<path d="M217.108 37.1446C220.136 37.1446 222.711 37.7908 224.834 39.0831C226.957 40.3754 228.582 42.1938 229.708 44.5385C230.834 46.8646 231.397 49.5969 231.397 52.7354C231.397 57.6462 230.142 61.4954 227.631 64.2831C225.121 67.0708 221.613 68.4646 217.108 68.4646C212.604 68.4646 209.096 67.0892 206.585 64.3385C204.074 61.5877 202.819 57.7385 202.819 52.7908C202.819 49.6708 203.382 46.9385 204.508 44.5938C205.653 42.2492 207.287 40.4215 209.41 39.1108C211.551 37.8 214.117 37.1446 217.108 37.1446ZM217.108 43.5969C215.317 43.5969 213.988 44.3354 213.121 45.8123C212.271 47.2708 211.847 49.5969 211.847 52.7908C211.847 56.04 212.271 58.3938 213.121 59.8523C213.988 61.3108 215.317 62.04 217.108 62.04C218.899 62.04 220.219 61.3108 221.068 59.8523C221.936 58.3938 222.37 56.0215 222.37 52.7354C222.37 49.56 221.936 47.2431 221.068 45.7846C220.219 44.3262 218.899 43.5969 217.108 43.5969Z" fill="black"/>
<path d="M265.534 48.1385C265.534 52.0338 265.017 55.2462 263.983 57.7754C262.968 60.3046 261.583 62.28 259.829 63.7015C258.076 65.1046 256.082 66.0923 253.848 66.6646C251.632 67.2369 249.334 67.5231 246.952 67.5231H236.596V29.1415H246.288C248.743 29.1415 251.116 29.4 253.405 29.9169C255.712 30.4154 257.771 31.3477 259.58 32.7138C261.408 34.0615 262.857 35.9815 263.928 38.4738C264.999 40.9477 265.534 44.1692 265.534 48.1385ZM256.119 48.1385C256.119 44.6862 255.74 42.0738 254.983 40.3015C254.245 38.5292 253.229 37.3292 251.937 36.7015C250.663 36.0554 249.223 35.7323 247.617 35.7323H245.679V60.96H247.617C249.297 60.96 250.774 60.6 252.048 59.88C253.322 59.1415 254.319 57.84 255.039 55.9754C255.759 54.1108 256.119 51.4985 256.119 48.1385Z" fill="black"/>
<path d="M278.403 55.3662C278.698 57.7662 279.483 59.4923 280.757 60.5446C282.03 61.5785 283.6 62.0954 285.464 62.0954C286.812 62.0954 288.114 61.8738 289.369 61.4308C290.624 60.9877 291.834 60.3969 292.997 59.6585L296.514 64.4215C295.129 65.6031 293.449 66.5723 291.474 67.3292C289.517 68.0862 287.283 68.4646 284.772 68.4646C281.412 68.4646 278.597 67.8 276.326 66.4708C274.055 65.1231 272.347 63.2769 271.203 60.9323C270.058 58.5877 269.486 55.8923 269.486 52.8462C269.486 49.9477 270.04 47.3169 271.147 44.9538C272.255 42.5723 273.87 40.68 275.994 39.2769C278.135 37.8554 280.747 37.1446 283.83 37.1446C286.637 37.1446 289.064 37.7446 291.114 38.9446C293.181 40.1446 294.778 41.8708 295.904 44.1231C297.049 46.3754 297.621 49.08 297.621 52.2369C297.621 52.7354 297.603 53.2708 297.566 53.8431C297.547 54.4154 297.51 54.9231 297.455 55.3662H278.403ZM283.83 43.0154C282.261 43.0154 280.997 43.5785 280.037 44.7046C279.077 45.8308 278.495 47.6308 278.292 50.1046H289.092C289.074 47.9631 288.658 46.2462 287.846 44.9538C287.034 43.6615 285.695 43.0154 283.83 43.0154Z" fill="black"/>
<path d="M331.785 38.1138L321.982 67.5231H311.681L301.767 38.1138H311.21L316.942 60.8215L322.924 38.1138H331.785Z" fill="black"/>
<path d="M364 21C369.095 21 372.668 21.7662 374.717 23.2985C376.785 24.8308 377.625 27.4708 377.237 31.2185L376.406 39.1385C376.258 40.5415 376.498 41.64 377.126 42.4338C377.754 43.2277 378.658 43.7908 379.84 44.1231C381.04 44.4369 382.425 44.5938 383.994 44.5938V51.6831C382.443 51.6831 381.068 51.8492 379.868 52.1815C378.668 52.4954 377.754 53.0492 377.126 53.8431C376.498 54.6369 376.258 55.7354 376.406 57.1385L377.237 65.0031C377.662 68.7877 376.831 71.4462 374.745 72.9785C372.677 74.5108 369.095 75.2769 364 75.2769V69.1846C365.698 69.1846 367.018 68.9446 367.96 68.4646C368.902 68.0031 369.298 67.0708 369.151 65.6677L368.292 57.4985C368.071 55.4123 368.292 53.7415 368.957 52.4862C369.64 51.2123 370.674 50.2431 372.058 49.5785C373.443 48.8954 375.068 48.4154 376.932 48.1385C374.957 47.8431 373.277 47.3631 371.892 46.6985C370.526 46.0338 369.529 45.0738 368.902 43.8185C368.274 42.5446 368.071 40.8646 368.292 38.7785L369.151 30.6092C369.298 29.2062 368.892 28.2738 367.932 27.8123C366.991 27.3323 365.68 27.0923 364 27.0923V21Z" fill="#97A2B7"/>
</svg>
