<svg xmlns="http://www.w3.org/2000/svg" xmlns:xlink="http://www.w3.org/1999/xlink" version="1.1" baseProfile="full" viewBox="0 0 706.67 144.00" enable-background="new 0 0 706.67 144.00" xml:space="preserve">
  <path fill="#0086C9" fill-opacity="1" stroke-width="0.2" stroke-linejoin="round" d="M 162.115,33.1388C 162.115,34.5588 161.405,35.2655 159.987,35.2655L 144.899,35.2655C 143.549,35.2655 142.873,34.5588 142.873,33.1388L 142.873,1.54814C 142.873,0.129471 143.549,-0.581177 144.899,-0.581177L 159.987,-0.581177C 161.405,-0.581177 162.115,0.129471 162.115,1.54814M 137.812,33.1388C 137.812,34.5588 137.136,35.2655 135.784,35.2655L 120.697,35.2655C 119.281,35.2655 118.572,34.5588 118.572,33.1388L 118.572,1.54814C 118.572,0.129471 119.281,-0.581177 120.697,-0.581177L 135.784,-0.581177C 137.136,-0.581177 137.812,0.129471 137.812,1.54814M 114.015,56.5282C 114.015,57.9455 113.308,58.6548 111.889,58.6548L 79.892,58.6548C 78.4733,58.6548 77.7653,59.3322 77.7653,60.6801L 77.7653,78.5028C 77.7653,79.9188 77.0893,80.6281 75.74,80.6281L 38.476,80.6281C 37.1253,80.6281 36.452,79.9188 36.452,78.5028L 36.452,60.6801C 36.452,59.3322 35.7426,58.6548 34.324,58.6548L 2.12398,58.6548C 0.709315,58.6548 -1.52588e-005,57.9455 -1.52588e-005,56.5282L -1.52588e-005,35.3668C -1.52588e-005,34.0162 0.709315,33.3415 2.12398,33.3415L 111.889,33.3415C 113.308,33.3415 114.015,34.0162 114.015,35.3668M 114.015,22.7095C 114.015,24.0601 113.308,24.7348 111.889,24.7348L 2.12398,24.7348C 0.709315,24.7348 -1.52588e-005,24.0601 -1.52588e-005,22.7095L -1.52588e-005,1.54814C -1.52588e-005,0.129471 0.709315,-0.581177 2.12398,-0.581177L 111.889,-0.581177C 113.308,-0.581177 114.015,0.129471 114.015,1.54814L 114.015,22.7095 Z "></path>
  <path fill="#0086C9" fill-opacity="1" stroke-width="0.2" stroke-linejoin="round" d="M 276.855,58.3523C 276.855,59.7043 276.179,60.5163 274.829,60.783L 174.179,80.6283C 172.963,80.6283 172.357,80.0603 172.357,78.9043L 172.357,48.7323C 172.357,47.3163 173.031,46.4709 174.381,46.2016L 275.033,26.3549C 276.245,26.3549 276.855,26.9283 276.855,28.0763M 218.732,22.9109C 218.732,24.3296 218.057,25.0389 216.708,25.0389L 174.585,25.0389C 173.097,25.0389 172.357,24.3296 172.357,22.9109L 172.357,1.84827C 172.357,0.501633 173.065,-0.175705 174.483,-0.175705L 216.605,-0.175705C 218.023,-0.175705 218.732,0.501633 218.732,1.84827L 218.732,22.9109 Z "></path>
  <path fill="#0086C9" fill-opacity="1" stroke-width="0.2" stroke-linejoin="round" d="M 402.984,62.6069C 402.984,63.9589 402.269,64.6309 400.852,64.6309L 372.194,64.6309C 370.984,64.6309 370.374,65.2376 370.374,66.451C 370.374,67.8043 370.625,69.8616 371.134,72.6309C 371.64,75.3963 371.892,77.4576 371.892,78.8056C 371.892,80.0243 371.25,80.6283 369.972,80.6283L 332.909,80.6283C 331.557,80.6283 330.782,79.9536 330.581,78.6029L 329.061,66.7536C 328.86,65.3363 328.081,64.6309 326.732,64.6309L 289.874,64.6309C 288.456,64.6309 287.748,63.9589 287.748,62.6069L 287.748,41.5456C 287.748,40.1256 288.456,39.415 289.874,39.415L 323.594,39.415C 324.808,39.415 325.417,38.8083 325.417,37.5936C 325.417,34.0163 324.502,32.227 322.681,32.227L 289.874,32.227C 288.456,32.227 287.748,31.5536 287.748,30.203L 287.748,9.04028C 287.748,7.68962 288.456,7.01494 289.874,7.01494L 319.541,7.01494C 320.757,7.01494 321.366,6.40027 321.366,5.1656C 321.366,4.68962 321.297,4.02026 321.162,3.1656C 321.028,2.31096 320.961,1.67761 320.961,1.26697C 320.961,0.0375977 321.568,-0.581055 322.784,-0.581055L 359.842,-0.581055C 361.325,-0.581055 362.202,0.685623 362.474,3.21761C 362.748,5.74829 363.588,7.01494 365.008,7.01494L 400.852,7.01494C 402.269,7.01494 402.984,7.68962 402.984,9.04028L 402.984,30.203C 402.984,31.5536 402.269,32.227 400.852,32.227L 368.148,32.227C 366.93,32.227 366.324,32.835 366.324,34.0496C 366.324,34.795 366.424,35.8736 366.626,37.2909C 366.833,38.7069 367.638,39.415 369.056,39.415L 400.852,39.415C 402.269,39.415 402.984,40.1256 402.984,41.5456L 402.984,62.6069 Z "></path>
  <path fill="#0086C9" fill-opacity="1" stroke-width="0.2" stroke-linejoin="round" d="M 532.43,9.34322L 524.536,44.2765C 524.194,45.6285 523.354,46.3005 522.002,46.3005L 484.844,46.3005C 483.689,46.3005 483.124,45.7646 483.124,44.6819C 483.124,43.7365 483.506,41.9659 484.282,39.3672C 485.061,36.7699 485.448,35.0299 485.448,34.1499C 485.448,33.0699 484.87,32.5326 483.726,32.5326L 473.194,32.5326C 471.916,32.5326 471.272,33.1726 471.272,34.4552L 471.272,34.6579L 475.424,78.7085C 475.556,79.9872 474.92,80.6272 473.501,80.6272L 436.338,80.6272C 434.985,80.6272 434.244,79.9192 434.112,78.5032L 429.957,34.6579C 429.822,33.2392 429.046,32.5326 427.632,32.5326L 415.886,32.5326C 414.533,32.5326 413.858,31.8245 413.858,30.4126L 413.858,9.43657C 413.858,8.02856 414.533,7.31787 415.886,7.31787L 425.298,7.31787C 426.584,7.31787 427.225,6.70186 427.225,5.47388C 427.225,4.99255 427.157,4.32854 427.025,3.47124C 426.885,2.61787 426.82,1.98454 426.82,1.5739C 426.82,0.271194 427.461,-0.376785 428.742,-0.376785L 465.905,-0.376785C 467.39,-0.376785 468.236,0.903198 468.436,3.47124C 468.64,6.03789 469.454,7.31787 470.866,7.31787L 530.814,7.31787C 531.892,7.31787 532.43,7.82722 532.43,8.83386L 532.43,9.34322 Z "></path>
  <path fill="#0086C9" fill-opacity="1" stroke-width="0.2" stroke-linejoin="round" d="M 706.238,33.0359C 706.238,34.4559 705.53,35.1652 704.11,35.1652L 689.024,35.1652C 687.675,35.1652 686.996,34.4559 686.996,33.0359L 686.996,1.44653C 686.996,0.0945587 687.675,-0.580124 689.024,-0.580124L 704.11,-0.580124C 705.53,-0.580124 706.238,0.0945587 706.238,1.44653M 682.039,33.0359C 682.039,34.4559 681.324,35.1652 679.911,35.1652L 664.824,35.1652C 663.47,35.1652 662.798,34.4559 662.798,33.0359L 662.798,1.44653C 662.798,0.0945587 663.47,-0.580124 664.824,-0.580124L 679.911,-0.580124C 681.324,-0.580124 682.039,0.0945587 682.039,1.44653M 658.138,62.6066C 658.138,63.9585 657.43,64.6305 656.012,64.6305L 627.356,64.6305C 625.939,64.6305 625.331,65.3359 625.535,66.7546L 626.951,78.6025C 627.086,79.9532 626.479,80.6279 625.127,80.6279L 588.064,80.6279C 586.584,80.6279 585.771,79.9532 585.636,78.6025L 584.223,66.7546C 584.018,65.3359 583.242,64.6305 581.892,64.6305L 545.034,64.6305C 543.616,64.6305 542.906,63.9585 542.906,62.6066L 542.906,41.5452C 542.906,40.1252 543.616,39.4159 545.034,39.4159L 578.652,39.4159C 580.135,39.4159 580.779,38.7412 580.574,37.3905L 580.172,34.3532C 579.967,32.9345 579.191,32.2266 577.839,32.2266L 545.034,32.2266C 543.616,32.2266 542.906,31.5532 542.906,30.2026L 542.906,9.03987C 542.906,7.68921 543.616,7.01457 545.034,7.01457L 574.6,7.01457C 576.02,7.01457 576.627,6.2959 576.426,4.85857L 576.02,1.47456C 575.879,0.105225 576.488,-0.580124 577.839,-0.580124L 615.002,-0.580124C 616.422,-0.580124 617.198,0.105225 617.331,1.47456L 617.736,4.85857C 617.939,6.2959 618.748,7.01457 620.168,7.01457L 656.012,7.01457C 657.43,7.01457 658.138,7.68921 658.138,9.03987L 658.138,30.2026C 658.138,31.5532 657.43,32.2266 656.012,32.2266L 623.302,32.2266C 621.956,32.2266 621.348,32.9345 621.484,34.3532L 621.787,37.3905C 621.923,38.7412 622.728,39.4159 624.218,39.4159L 656.012,39.4159C 657.43,39.4159 658.138,40.1252 658.138,41.5452L 658.138,62.6066 Z "></path>
  <path fill="#0086C9" fill-opacity="1" stroke-width="0.2" stroke-linejoin="round" d="M 188.214,132.999L 193.843,132.999C 194.291,132.999 194.691,132.891 195.043,132.677C 195.395,132.465 195.692,132.184 195.938,131.833C 196.183,131.484 196.375,131.081 196.514,130.632C 196.652,130.177 196.72,129.705 196.72,129.212L 196.72,117.569C 196.72,117.057 196.652,116.569 196.514,116.109C 196.375,115.649 196.179,115.245 195.923,114.896C 195.666,114.545 195.363,114.267 195.01,114.065C 194.659,113.86 194.27,113.755 193.843,113.755L 188.214,113.755M 196.467,110.532C 197.362,110.532 198.178,110.709 198.912,111.07C 199.648,111.427 200.283,111.924 200.816,112.553C 201.348,113.185 201.764,113.932 202.063,114.792C 202.362,115.652 202.51,116.58 202.51,117.569L 202.51,129.212C 202.51,130.184 202.366,131.088 202.079,131.921C 201.791,132.759 201.386,133.492 200.863,134.124C 200.34,134.755 199.706,135.249 198.962,135.608C 198.214,135.967 197.382,136.144 196.467,136.144L 182.074,136.144L 182.074,110.532L 196.467,110.532 Z "></path>
  <path fill="#0086C9" fill-opacity="1" stroke-width="0.2" stroke-linejoin="round" d="M 213.608,124.809L 220.26,124.809C 220.687,124.809 221.049,124.781 221.348,124.721C 221.647,124.662 221.885,124.523 222.068,124.313C 222.249,124.098 222.383,123.794 222.467,123.401C 222.552,123.009 222.596,122.482 222.596,121.817C 222.596,121.203 222.557,120.706 222.484,120.333C 222.408,119.958 222.285,119.675 222.116,119.489C 221.944,119.302 221.709,119.175 221.412,119.117C 221.112,119.057 220.729,119.026 220.26,119.026L 216.005,119.026C 215.516,119.026 215.115,119.078 214.807,119.182C 214.497,119.283 214.259,119.461 214.088,119.719C 213.916,119.973 213.793,120.319 213.72,120.755C 213.645,121.19 213.608,121.739 213.608,122.405M 222.755,115.829C 224.419,115.829 225.733,116.315 226.704,117.287C 227.675,118.259 228.161,119.778 228.161,121.841C 228.161,123.942 227.707,125.447 226.801,126.357C 225.895,127.271 224.545,127.727 222.755,127.727L 213.608,127.727L 213.608,129.518C 213.608,130.285 213.656,130.898 213.752,131.361C 213.848,131.822 214.013,132.173 214.247,132.422C 214.483,132.67 214.801,132.827 215.208,132.894C 215.612,132.965 216.124,132.999 216.743,132.999L 225.985,132.999L 225.985,136.145L 213.96,136.145C 212.808,136.145 211.816,136.029 210.985,135.798C 210.155,135.567 209.471,135.194 208.939,134.673C 208.405,134.155 208.016,133.471 207.771,132.627C 207.524,131.781 207.404,130.738 207.404,129.491L 207.404,122.457C 207.404,121.227 207.524,120.191 207.771,119.347C 208.016,118.502 208.405,117.821 208.939,117.299C 209.471,116.781 210.155,116.403 210.985,116.174C 211.816,115.945 212.808,115.829 213.96,115.829L 222.755,115.829 Z "></path>
  <path fill="#0086C9" fill-opacity="1" stroke-width="0.2" stroke-linejoin="round" d="M 245.783,115.828C 246.955,115.828 247.957,115.926 248.789,116.123C 249.621,116.318 250.297,116.662 250.82,117.146C 251.343,117.634 251.72,118.278 251.955,119.079C 252.189,119.882 252.308,120.887 252.308,122.098L 252.308,136.144L 246.263,136.144L 246.263,122.458C 246.263,121.774 246.22,121.212 246.133,120.767C 246.048,120.323 245.909,119.972 245.717,119.719C 245.524,119.462 245.272,119.284 244.963,119.183C 244.652,119.079 244.283,119.026 243.856,119.026L 237.755,119.026L 237.755,136.144L 231.615,136.144L 231.615,115.828L 245.783,115.828 Z "></path>
  <path fill="#0086C9" fill-opacity="1" stroke-width="0.2" stroke-linejoin="round" d="M 262.863,109.383L 262.863,122.406L 263.247,122.406L 270.569,115.828L 277.383,115.828L 266.604,124.094L 278.343,136.144L 271.083,136.144L 263.695,127.854L 263.181,127.139L 262.863,127.139L 262.863,136.144L 256.657,136.144L 256.657,109.383L 262.863,109.383 Z "></path>
  <path fill="#0086C9" fill-opacity="1" stroke-width="0.2" stroke-linejoin="round" d="M 295.42,112.887L 289.28,112.887L 289.28,109.383L 295.42,109.383M 295.42,115.829L 295.42,132.999L 302.329,132.999L 302.329,136.145L 282.308,136.145L 282.308,132.999L 289.28,132.999L 289.28,119.026L 282.308,119.026L 282.308,115.829L 295.42,115.829 Z "></path>
  <path fill="#0086C9" fill-opacity="1" stroke-width="0.2" stroke-linejoin="round" d="M 310.953,110.533L 315.43,122.813L 319.908,110.533L 326.433,110.533L 318.342,126.934L 318.342,136.145L 312.2,136.145L 312.2,126.857L 305.364,110.533L 310.953,110.533 Z "></path>
  <path fill="#0086C9" fill-opacity="1" stroke-width="0.2" stroke-linejoin="round" d="M 337.147,126.551C 336.315,126.551 335.639,126.599 335.116,126.703C 334.592,126.804 334.177,126.976 333.869,127.216C 333.56,127.455 333.347,127.764 333.228,128.147C 333.112,128.531 333.053,129.007 333.053,129.568C 333.053,131.856 333.574,132.999 334.62,132.999L 342.104,132.999L 342.104,126.551M 341.656,115.828C 342.872,115.828 343.896,115.926 344.727,116.123C 345.557,116.318 346.234,116.662 346.757,117.146C 347.28,117.634 347.657,118.278 347.893,119.079C 348.126,119.882 348.245,120.887 348.245,122.098L 348.245,136.144L 332.829,136.144C 331.976,136.144 331.199,135.986 330.495,135.67C 329.791,135.354 329.183,134.915 328.672,134.351C 328.16,133.787 327.764,133.115 327.488,132.336C 327.211,131.56 327.071,130.718 327.071,129.812C 327.071,128.923 327.211,128.09 327.488,127.314C 327.764,126.535 328.16,125.855 328.672,125.275C 329.183,124.692 329.791,124.236 330.495,123.902C 331.199,123.571 331.976,123.402 332.829,123.402L 342.136,123.402L 342.136,121.672C 342.136,120.62 341.954,119.918 341.593,119.563C 341.229,119.207 340.612,119.026 339.737,119.026L 330.271,119.026L 330.271,115.828L 341.656,115.828 Z "></path>
  <path fill="#0086C9" fill-opacity="1" stroke-width="0.2" stroke-linejoin="round" d="M 358.354,129.774C 358.354,130.387 358.39,130.899 358.463,131.308C 358.538,131.718 358.666,132.051 358.847,132.306C 359.028,132.564 359.271,132.742 359.579,132.846C 359.886,132.947 360.284,132.999 360.772,132.999L 366.699,132.999L 366.699,119.026L 362.495,119.026C 361.647,119.026 360.952,119.066 360.423,119.142C 359.892,119.219 359.472,119.368 359.166,119.59C 358.856,119.811 358.644,120.124 358.528,120.524C 358.411,120.923 358.354,121.448 358.354,122.098M 372.84,115.828L 372.84,137.192C 372.84,138.458 372.724,139.508 372.488,140.355C 372.252,141.198 371.866,141.879 371.328,142.4C 370.792,142.92 370.108,143.292 369.271,143.514C 368.435,143.734 367.43,143.847 366.252,143.847L 356.338,143.847L 356.338,140.698L 361.742,140.698C 362.766,140.698 363.603,140.667 364.252,140.61C 364.903,140.548 365.408,140.407 365.772,140.187C 366.135,139.963 366.382,139.64 366.508,139.22C 366.635,138.8 366.699,138.23 366.699,137.51L 366.699,136.144L 358.8,136.144C 357.604,136.144 356.594,136.028 355.763,135.799C 354.928,135.568 354.254,135.194 353.731,134.674C 353.208,134.155 352.826,133.471 352.579,132.628C 352.334,131.782 352.212,130.739 352.212,129.491L 352.212,122.482C 352.212,121.238 352.34,120.188 352.596,119.336C 352.852,118.48 353.248,117.796 353.78,117.275C 354.315,116.754 354.998,116.383 355.828,116.162C 356.663,115.942 357.658,115.828 358.81,115.828L 372.84,115.828 Z "></path>
  <path fill="#0086C9" fill-opacity="1" stroke-width="0.2" stroke-linejoin="round" d="M 391.744,112.887L 385.603,112.887L 385.603,109.383L 391.744,109.383M 391.744,115.829L 391.744,132.999L 398.653,132.999L 398.653,136.145L 378.629,136.145L 378.629,132.999L 385.603,132.999L 385.603,119.026L 378.629,119.026L 378.629,115.829L 391.744,115.829 Z "></path>
  <path fill="#0086C9" fill-opacity="1" stroke-width="0.2" stroke-linejoin="round" d="M 432.234,110.533L 432.234,113.755L 425.516,113.755L 425.516,132.999L 432.234,132.999L 432.234,136.145L 412.628,136.145L 412.628,132.999L 419.374,132.999L 419.374,113.755L 412.628,113.755L 412.628,110.533L 432.234,110.533 Z "></path>
  <path fill="#0086C9" fill-opacity="1" stroke-width="0.2" stroke-linejoin="round" d="M 450.463,115.828C 451.634,115.828 452.638,115.926 453.471,116.123C 454.302,116.318 454.976,116.662 455.5,117.146C 456.022,117.634 456.402,118.278 456.635,119.079C 456.872,119.882 456.988,120.887 456.988,122.098L 456.988,136.144L 450.944,136.144L 450.944,122.458C 450.944,121.774 450.902,121.212 450.816,120.767C 450.73,120.323 450.588,119.972 450.398,119.719C 450.206,119.462 449.954,119.284 449.642,119.183C 449.331,119.079 448.963,119.026 448.535,119.026L 442.435,119.026L 442.435,136.144L 436.294,136.144L 436.294,115.828L 450.463,115.828 Z "></path>
  <path fill="#0086C9" fill-opacity="1" stroke-width="0.2" stroke-linejoin="round" d="M 480.88,115.828L 480.88,119.026L 469.492,119.026C 469.022,119.026 468.633,119.079 468.326,119.183C 468.018,119.284 467.772,119.462 467.59,119.719C 467.409,119.972 467.281,120.323 467.208,120.767C 467.13,121.212 467.094,121.774 467.094,122.458L 467.094,129.826C 467.094,131.463 467.529,132.454 468.408,132.794C 468.81,132.966 470.197,133.048 472.565,133.048C 472.99,133.048 473.54,133.042 474.21,133.023C 474.882,133.006 475.729,132.999 476.753,132.999L 480.88,132.999L 480.88,136.144L 467.448,136.144C 466.294,136.144 465.304,136.028 464.472,135.799C 463.638,135.568 462.958,135.194 462.424,134.674C 461.89,134.155 461.501,133.471 461.256,132.628C 461.012,131.782 460.888,130.739 460.888,129.491L 460.888,122.458C 460.888,121.228 461.012,120.191 461.256,119.348C 461.501,118.502 461.89,117.82 462.424,117.3C 462.958,116.782 463.638,116.404 464.472,116.175C 465.304,115.944 466.294,115.828 467.448,115.828L 480.88,115.828 Z "></path>
  <rect x="486.891" y="132.334" fill="#0086C9" fill-opacity="1" stroke-width="0.2" stroke-linejoin="round" width="6.14136" height="3.75867"></rect>
  <path fill="#0086C9" fill-opacity="1" fill-rule="evenodd" stroke-width="0.2" stroke-linejoin="round" d="M 616.36,126.728L 616.36,128.724C 616.36,129.289 615.896,129.752 615.335,129.752L 612.187,129.752L 612.187,135.568C 612.109,140.423 607.536,144 603.129,143.939L 576.305,143.939L 576.305,101.217L 603.981,101.217C 610.108,101.232 612.293,105.421 612.187,111.471L 612.187,115.399L 615.335,115.399C 615.896,115.399 616.36,115.863 616.36,116.428L 616.36,119.468"></path>
  <path fill="#0086C9" fill-opacity="1" fill-rule="evenodd" stroke-width="0.2" stroke-linejoin="round" d="M 542.911,135.016L 542.911,135.01C 542.911,133.352 544.279,131.981 545.949,131.981L 575.083,131.981L 575.083,138.048L 545.949,138.048C 544.279,138.048 542.911,136.684 542.911,135.016 Z "></path>
  <path fill="#0086C9" fill-opacity="1" fill-rule="evenodd" stroke-width="0.2" stroke-linejoin="round" d="M 542.911,109.68L 542.911,109.68C 542.911,108.012 544.279,106.652 545.949,106.652L 575.083,106.652L 575.083,112.712L 545.949,112.712C 544.279,112.712 542.911,111.354 542.911,109.68 Z "></path>
  <path fill="#0086C9" fill-opacity="1" stroke-width="0.2" stroke-linejoin="round" d="M 702.476,125.401L 604.171,125.401C 602.608,125.401 601.344,124.137 601.344,122.58C 601.344,121.019 602.608,119.756 604.171,119.756L 699.652,119.756L 699.652,96.5105L 668.636,96.5105C 667.072,96.5105 665.812,95.2505 665.812,93.6866L 665.812,75.0399C 665.812,73.4839 667.072,72.2225 668.636,72.2225L 699.652,72.2225L 699.652,53.9079L 641.261,53.9079C 639.697,53.9079 638.437,52.6466 638.437,51.0892C 638.437,49.5306 639.697,48.2666 641.261,48.2666L 702.476,48.2666C 704.033,48.2666 705.299,49.5306 705.299,51.0892L 705.299,75.0399C 705.299,76.5972 704.033,77.8652 702.476,77.8652L 671.453,77.8652L 671.453,90.8625L 702.476,90.8625C 704.033,90.8625 705.299,92.1292 705.299,93.6866L 705.299,122.58C 705.299,124.137 704.033,125.401 702.476,125.401 Z "></path>
</svg>