<?xml version="1.0" encoding="UTF-8" standalone="no"?>
<!DOCTYPE svg PUBLIC "-//W3C//DTD SVG 1.1//EN" "http://www.w3.org/Graphics/SVG/1.1/DTD/svg11.dtd">
<svg width="100%" height="100%" viewBox="0 0 955 309" version="1.1" xmlns="http://www.w3.org/2000/svg" xmlns:xlink="http://www.w3.org/1999/xlink" xml:space="preserve" xmlns:serif="http://www.serif.com/" style="fill-rule:evenodd;clip-rule:evenodd;stroke-linejoin:round;stroke-miterlimit:2;">
    <g id="アートボード1" transform="matrix(1,0,0,1,77.1,77.1)">
        <rect x="-77.1" y="-77.1" width="954.2" height="308.335" style="fill:none;"/>
        <g transform="matrix(1,0,0,1,3.30041,155.035)">
            <path d="M0,-142.092L28.033,-142.092C29.359,-142.092 30.435,-141.017 30.435,-139.692L30.435,-63.557L62.164,-106.178C62.617,-106.787 63.331,-107.145 64.09,-107.145L98.293,-107.145C100.324,-107.145 101.438,-104.778 100.141,-103.213L58.853,-53.381L100.462,-3.946C101.776,-2.385 100.666,0 98.625,0L64.3,0C63.531,0 62.81,-0.368 62.357,-0.989L30.435,-44.931L30.435,-2.401C30.435,-1.075 29.359,0 28.033,0L0,0C-1.325,0 -2.4,-1.075 -2.4,-2.401L-2.4,-139.692C-2.4,-141.017 -1.325,-142.092 0,-142.092" style="fill:rgb(40,80,220);fill-rule:nonzero;"/>
        </g>
        <g transform="matrix(1,0,0,1,119.739,155.034)">
            <path d="M0,-107.145L28.033,-107.145C29.359,-107.145 30.434,-106.07 30.434,-104.744L30.434,-2.4C30.434,-1.075 29.359,0 28.033,0L0,0C-1.326,0 -2.4,-1.075 -2.4,-2.4L-2.4,-104.744C-2.4,-106.07 -1.326,-107.145 0,-107.145" style="fill:rgb(40,80,220);fill-rule:nonzero;"/>
        </g>
        <g transform="matrix(0,-1,-1,0,133.756,1.2304)">
            <path d="M-17.762,-17.762C-27.572,-17.762 -35.524,-9.81 -35.524,0C-35.524,9.81 -27.572,17.762 -17.762,17.762C-7.952,17.762 0,9.81 0,0C0,-9.81 -7.952,-17.762 -17.762,-17.762" style="fill:rgb(40,80,220);fill-rule:nonzero;"/>
        </g>
        <g transform="matrix(1,0,0,1,283.159,155.035)">
            <path d="M0,-142.092L28.033,-142.092C29.358,-142.092 30.434,-141.017 30.434,-139.692L30.434,-63.557L62.164,-106.178C62.617,-106.787 63.331,-107.145 64.09,-107.145L98.292,-107.145C100.324,-107.145 101.437,-104.778 100.141,-103.213L58.852,-53.381L100.461,-3.946C101.775,-2.385 100.665,0 98.624,0L64.299,0C63.53,0 62.809,-0.368 62.357,-0.989L30.434,-44.931L30.434,-2.401C30.434,-1.075 29.358,0 28.033,0L0,0C-1.326,0 -2.401,-1.075 -2.401,-2.401L-2.401,-139.692C-2.401,-141.017 -1.326,-142.092 0,-142.092" style="fill:rgb(40,80,220);fill-rule:nonzero;"/>
        </g>
        <g transform="matrix(1,0,0,1,477.085,155.035)">
            <path d="M0,-142.092L28.034,-142.092C29.359,-142.092 30.435,-141.017 30.435,-139.692L30.435,-2.401C30.435,-1.075 29.359,0 28.034,0L0,0C-1.325,0 -2.4,-1.075 -2.4,-2.401L-2.4,-139.692C-2.4,-141.017 -1.325,-142.092 0,-142.092" style="fill:rgb(40,80,220);fill-rule:nonzero;"/>
        </g>
        <g transform="matrix(1,0,0,1,639.835,155.034)">
            <path d="M0,-107.145L27.733,-107.145C28.873,-107.145 29.856,-106.342 30.085,-105.225L44.86,-32.931L62.466,-105.312C62.728,-106.388 63.691,-107.145 64.799,-107.145L95.784,-107.145C96.889,-107.145 97.85,-106.392 98.115,-105.32L115.907,-33.315L130.493,-105.222C130.72,-106.341 131.704,-107.145 132.846,-107.145L158.663,-107.145C160.244,-107.145 161.394,-105.644 160.98,-104.117L133.285,-1.773C133.002,-0.727 132.053,0 130.968,0L98.397,0C97.29,0 96.326,-0.757 96.064,-1.833L79.617,-69.509L62.599,-1.815C62.331,-0.748 61.371,0 60.271,0L27.879,0C26.796,0 25.848,-0.725 25.562,-1.77L-2.316,-104.113C-2.732,-105.641 -1.583,-107.145 0,-107.145" style="fill:rgb(40,80,220);fill-rule:nonzero;"/>
        </g>
        <g transform="matrix(1,0,0,1,220.276,74.33)">
            <path d="M0,53.822C-16.619,53.822 -29.688,38.635 -26.09,21.383C-23.967,11.2 -15.67,3.013 -5.469,0.986C5.784,-1.25 16.093,3.604 21.866,11.866C22.6,12.917 23.969,13.293 25.078,12.653L45.533,0.843C46.71,0.163 47.126,-1.383 46.393,-2.528C36.388,-18.153 18.752,-28.418 -1.283,-27.962C-29.983,-27.308 -53.972,-3.713 -55.067,24.973C-56.267,56.392 -31.152,82.24 0,82.24C19.502,82.24 36.599,72.083 46.39,56.796C47.124,55.649 46.708,54.099 45.529,53.418L25.068,41.606C23.963,40.968 22.603,41.343 21.872,42.39C17.051,49.295 9.062,53.822 0,53.822" style="fill:rgb(40,80,220);fill-rule:nonzero;"/>
        </g>
        <g transform="matrix(1,0,0,1,577.665,74.772)">
            <path d="M0,53.38C-14.741,53.38 -26.69,41.431 -26.69,26.69C-26.69,11.95 -14.741,0 0,0C14.74,0 26.69,11.95 26.69,26.69C26.69,41.431 14.74,53.38 0,53.38M0,-28.418C-30.436,-28.418 -55.108,-3.745 -55.108,26.69C-55.108,57.125 -30.436,81.798 0,81.798C30.436,81.798 55.108,57.125 55.108,26.69C55.108,-3.745 30.436,-28.418 0,-28.418" style="fill:rgb(40,80,220);fill-rule:nonzero;"/>
        </g>
        <g transform="matrix(1,0,0,1,405.701,83.5174)">
            <path d="M0,-8.361L-9.504,-8.361C-10.83,-8.361 -11.904,-9.436 -11.904,-10.762L-11.904,-33.227C-11.904,-34.553 -10.83,-35.628 -9.504,-35.628L0,-35.628L0,-38.699C0,-66.052 16.45,-79.878 47.566,-78.93C48.864,-78.891 49.925,-77.799 49.925,-76.502L49.925,-53.477C49.925,-52.117 48.793,-51.066 47.433,-51.08C36.666,-51.195 32.835,-47.14 32.835,-36.587L32.835,-35.628L48.101,-35.628C49.427,-35.628 50.501,-34.553 50.501,-33.227L50.501,-10.762C50.501,-9.436 49.427,-8.361 48.101,-8.361L32.835,-8.361L32.835,69.117C32.835,70.442 31.76,71.517 30.434,71.517L2.4,71.517C1.074,71.517 0,70.442 0,69.117L0,-8.361Z" style="fill:rgb(40,80,220);fill-rule:nonzero;"/>
        </g>
    </g>
</svg>
