<svg xmlns="http://www.w3.org/2000/svg" width="314" height="100" viewBox="0 0 314 100"><title>PixelGrid</title><path d="M20.777 30.958a6.4 6.4 0 0 1 .754-.1q1.118 0 3.674.133 1.347.031 1.838.031.723 0 3.051-.13l5.578-.329q2.2-.2 5.117-.2a19.245 19.245 0 0 1 8.2 1.46A10.231 10.231 0 0 1 53.7 36.4a13.078 13.078 0 0 1 1.657 6.191 12.339 12.339 0 0 1-3.609 8.879 12.872 12.872 0 0 1-9.713 3.73 10.143 10.143 0 0 1-2.853-.344 10.2 10.2 0 0 1-2.624-1.33 1.731 1.731 0 0 1-.754-.885.748.748 0 0 1 .36-.329 2.543 2.543 0 0 1 .952.2 8.6 8.6 0 0 0 2.822.394 9.981 9.981 0 0 0 4.9-1.278 8.31 8.31 0 0 0 3.5-3.638 10.962 10.962 0 0 0 1.181-4.977 10.686 10.686 0 0 0-1.244-4.963A10.562 10.562 0 0 0 45 34.2a10.235 10.235 0 0 0-3.52-1.376 17.413 17.413 0 0 0-3.683-.557q-4.061 0-4.812.59l-.034.459.1 3.7-.032.655q-.065.886-.066 2.721 0 6.687.2 8.325v1.843l.426 14.982c0 .219-.027.622-.082 1.213s-.082 1.1-.082 1.54a8.327 8.327 0 0 0 .262 2.394q.787.229 4.594 1.082 1.771.428 1.934.492a.949.949 0 0 1 .46.426 1.133 1.133 0 0 1-.345.642 1.637 1.637 0 0 1-.837.145c-.263 0-.874-.053-1.836-.165q-2.822-.3-4.43-.3l-5.773.231-3.445-.1q-.327 0-1.9.066l-.033-.853 4.264-.818a2.763 2.763 0 0 0 1.281-.593 3.381 3.381 0 0 0 .328-1.8c0-.194.01-.621.031-1.276.024-.461.034-1.094.034-1.9q0-3.865-.328-16.487-.131-5.9-.131-12v-.556q0-2.36-.722-2.984-1.212-1.079-6.069-1.769a1.552 1.552 0 0 1-.164-.591 1.35 1.35 0 0 1 .2-.623M59.638 54.817l.035-1.04q2.289-.67 2.465-.777a11.491 11.491 0 0 0 2.662-1.731 11.927 11.927 0 0 0 2.341-2.615 4.3 4.3 0 0 1 .67-.071l.422.036q.141 1.692.141 2.466c0 .118-.022.647-.071 1.584v1.868l.036 10.143-.108 10.741a2.642 2.642 0 0 0 .422 1.815 6.886 6.886 0 0 0 2.713 1.144 21.494 21.494 0 0 1 2.113.669 1.119 1.119 0 0 1 .106.424 1.167 1.167 0 0 1-.176.528q-1.375-.037-3.523-.176-2.924-.246-3.874-.247-.456 0-5.635.176a19.429 19.429 0 0 0-2.043.176 2.5 2.5 0 0 1-.564-.1.775.775 0 0 1-.176-.424.884.884 0 0 1 .67-.775q.141-.069 3.592-.808a2.292 2.292 0 0 0 1.479-.7 3.735 3.735 0 0 0 .6-2.357Q64 72.051 64 59.917a12.406 12.406 0 0 0-.211-3.024 2.685 2.685 0 0 0-.933-.968 10.18 10.18 0 0 0-3.222-1.107m2.966-18.28a2.67 2.67 0 0 1 .9-2.008 3.049 3.049 0 0 1 2.166-.844 3.2 3.2 0 0 1 2.29.95 2.822 2.822 0 0 1 .986 2.043 7.058 7.058 0 0 1-1.109 3.513c-.658.645-1.3-.484-2.166-.484a2.968 2.968 0 0 1-2.183-.881 3.1 3.1 0 0 1-.881-2.29M73.26 47.374a5.385 5.385 0 0 1-.111-.791l-.025-.468a5 5 0 0 1 1.224-.21l1.3-.069q3.03-.053 3.8-.093 2.427-.127 4.92-.329 1.547-.113 1.9-.134l.843-.044a1.865 1.865 0 0 1 .284.726 1.307 1.307 0 0 1-.112.5l-.521.1a9.919 9.919 0 0 0-3.184.81.533.533 0 0 0-.258.477 3.325 3.325 0 0 0 .933 1.627q4.374 5.129 5.924 6.6a56.427 56.427 0 0 0 3.678-5.892 4.786 4.786 0 0 0 .537-1.994 1.737 1.737 0 0 0-.7-1.33 7.063 7.063 0 0 0-3.142-.74 1.35 1.35 0 0 1-.318-.688l.087-.357.912-.083c.234-.011.646-.022 1.232-.028q1.519.025 3.032-.053.772-.043 2.67-.193t2.88-.2l1.618-.084a.642.642 0 0 1 .487.539 2.01 2.01 0 0 1-.047.459q-.554.171-1.356.354a9.851 9.851 0 0 0-3.621 1.576 9.7 9.7 0 0 0-2.5 2.726l-4.614 7 5.412 6.13q3.748 4.561 4.585 5.363a7.467 7.467 0 0 0 1.783 1.28 11.207 11.207 0 0 0 2.731.842c.039.282.064.527.075.738a2.314 2.314 0 0 1-.106.675q-.635.032-6.427.16-.355.019-3.383.248c-.633.057-1.244.1-1.831.131q-.809.042-2.015.036l.053-1.061c.348-.09.733-.191 1.151-.307a6.374 6.374 0 0 0 2.531-1.084 1.1 1.1 0 0 0 .417-.867q-.04-.773-5.089-6.245l-2.181-2.366a27.508 27.508 0 0 0-3.08 4.359 26.791 26.791 0 0 1-1.544 2.443 4.025 4.025 0 0 0-1.074 2.4.894.894 0 0 0 .457.622 8.155 8.155 0 0 0 2.5.656c.925.136 1.577.254 1.957.349a3.5 3.5 0 0 1 .143.717 5.069 5.069 0 0 1-.034.689q-2.715 0-5.281.138-3.238.17-4.692.333t-1.808.182q-.422.024-1.339 0a3.011 3.011 0 0 1-.18-.732l.047-.459A3.525 3.525 0 0 1 76 72.06a7.7 7.7 0 0 0 4.093-1.976q1.749-1.605 7.567-10.473L77.411 48.5a3.442 3.442 0 0 0-.549-.394 5.025 5.025 0 0 0-1.539-.413q-1.456-.2-2.061-.315M131.7 57.5l-14.123.1H114.9q-1.62 0-3.311.146a6.248 6.248 0 0 0-.317 1.444l.036.352v.352l-.036 1.727a13.729 13.729 0 0 0 1.356 5.264 10.462 10.462 0 0 0 3.874 4.756 11.953 11.953 0 0 0 6.286 1.744 13.087 13.087 0 0 0 3.212-.499 16.29 16.29 0 0 0 3.382-1.8l2.535-2.078.213 1.409a4.1 4.1 0 0 1-.036.529 15.468 15.468 0 0 1-4.015 3.523 19.1 19.1 0 0 1-4.931 2.219 17.232 17.232 0 0 1-3.943.317 12.63 12.63 0 0 1-4.93-1.022A11.989 11.989 0 0 1 108.616 71a15.9 15.9 0 0 1-2.061-8.329 17.939 17.939 0 0 1 .58-3.981 20.947 20.947 0 0 1 2.1-5.177 10.113 10.113 0 0 1 2.5-3.064 16.539 16.539 0 0 1 3.7-2.359 13.765 13.765 0 0 1 5.318-.952 10.442 10.442 0 0 1 9.561 5.284A9.562 9.562 0 0 1 131.7 57v.5m-19.654-1.269h1.654q1.8 0 10.707-.563a4.462 4.462 0 0 0 1.725-.282 1.873 1.873 0 0 0 .634-1.2 5.631 5.631 0 0 0-.7-2.483 4.86 4.86 0 0 0-2.166-2.148 7.293 7.293 0 0 0-3.4-.758 7.985 7.985 0 0 0-6.55 3.065 7.082 7.082 0 0 0-1.9 4.366M134.239 32.453v-.774q.988-.318 2.184-.669 1.77-.565 5.24-1.727h1.662v1.939q0 28.938-.176 34.507-.1 3.278-.1 3.491 0 3.946.317 4.4.422.635 2.589.882A8.914 8.914 0 0 1 148.5 75a.5.5 0 0 1 .281.492.757.757 0 0 1-.158.545.817.817 0 0 1-.582.159q-.247 0-3.7-.119l-4.614-.161-5.917.281a1.117 1.117 0 0 1-.844-.216.626.626 0 0 1-.213-.505.6.6 0 0 1 .229-.524 12.883 12.883 0 0 1 2.536-.55 9.175 9.175 0 0 0 2.641-.652 1.782 1.782 0 0 0 .44-1.18q.14-1.267.141-7.149l-.036-8.1.108-8.383-.036-8.382.1-4.121a3.147 3.147 0 0 0-.387-1.778 3.87 3.87 0 0 0-1.655-1.075q-1.9-.773-2.608-1.128M197.2 39.02l.355 4.937q.2 2.241.195 3.052l-.909.162a18.413 18.413 0 0 0-5.406-7.4 12.65 12.65 0 0 0-7.908-2.468 22.772 22.772 0 0 0-8.9 1.4 18.167 18.167 0 0 0-7.89 6.885 20.771 20.771 0 0 0-3.28 11.82 20.2 20.2 0 0 0 1.2 7.177 21.822 21.822 0 0 0 3.393 5.929 23.224 23.224 0 0 0 5.181 4.758 14.47 14.47 0 0 0 4.645 2.013 21.518 21.518 0 0 0 4.544.358 19.269 19.269 0 0 0 4.32-.554 9.37 9.37 0 0 0 3.574-1.481 4.76 4.76 0 0 0 1.639-2.092 15.239 15.239 0 0 0 .439-4.547q0-5.617-.748-6.543t-4.702-1.226l-1.3-.1-.877.033c-.13-.022-.3-.055-.519-.1l-.488-.811a.729.729 0 0 1 .229-.423 62.574 62.574 0 0 1 7.338-.259q1.269 0 4.123.066l3.348.129 3.019-.033q.879 0 2.11.066a.462.462 0 0 1 .293.114.447.447 0 0 1 .064.277 3.334 3.334 0 0 1-.162.908 10.758 10.758 0 0 1-2.11.292l-2.11-.029a2.164 2.164 0 0 0-1.72.748 4.941 4.941 0 0 0-.325 2.436l.032 4.254a25.844 25.844 0 0 1-.355 5.583 2.722 2.722 0 0 1-.812 1.286 9.342 9.342 0 0 1-2.6 1.346 25.2 25.2 0 0 1-5.132 1.527 48.312 48.312 0 0 1-8.281.745 28.745 28.745 0 0 1-10.538-1.639 21.124 21.124 0 0 1-7.08-4.563 18.709 18.709 0 0 1-4.238-5.911 22.083 22.083 0 0 1-1.915-8.93 22.752 22.752 0 0 1 3-11.123 22.063 22.063 0 0 1 9.694-8.85q4.71-2.4 12.794-2.4a35.45 35.45 0 0 1 9.144.975 23.336 23.336 0 0 1 5.632 2.206M205.527 70.72l-.1-.468a1.632 1.632 0 0 1 .38-.709l2.108-.24 2.958-.271a1.013 1.013 0 0 0 .535-.448 9.508 9.508 0 0 0 .445-2.677q1.042-11.91 1.062-13.762a4.065 4.065 0 0 0-.428-2.384 5.1 5.1 0 0 0-2.459-.992 8.657 8.657 0 0 1-1.855-.621l.235-1.058a20.064 20.064 0 0 0 5.174-2.17 13.187 13.187 0 0 0 3.346-3.892l1.191.14q.058 1.773-.472 7.807l-.088.594a5.293 5.293 0 0 0 .012.673 20.361 20.361 0 0 1 3.723-4.165l.878-.736a5.367 5.367 0 0 1 1.023-.795 8.417 8.417 0 0 1 3.779-1.153 3.336 3.336 0 0 1 2.435 1.256 3.564 3.564 0 0 1 .759 2.629 2.447 2.447 0 0 1-.864 1.8 3.11 3.11 0 0 1-2.252.686 8.342 8.342 0 0 1-2.158-.789 8.518 8.518 0 0 0-2.122-.786 2.229 2.229 0 0 0-1.4.2 12.017 12.017 0 0 0-2.662 2.951 6.46 6.46 0 0 0-1.376 3.2L217 60.352l-.538 6.969a5.3 5.3 0 0 0 .145 1.572 2.106 2.106 0 0 0 .65.66q3.76.648 4.45.85c.324.052.569.1.73.134a4.332 4.332 0 0 1 2.068.607.575.575 0 0 1 .271.554 1.044 1.044 0 0 1-.33.537c-6.318-.776-12.578-1.088-18.924-1.514M232.891 41.132l.036-1.039q2.288-.671 2.465-.777a11.451 11.451 0 0 0 2.658-1.732 11.99 11.99 0 0 0 2.344-2.614 4.229 4.229 0 0 1 .669-.071l.422.034q.141 1.69.142 2.466 0 .176-.071 1.585v1.866l.034 10.143-.106 10.742a2.637 2.637 0 0 0 .423 1.815 6.875 6.875 0 0 0 2.712 1.144 21.563 21.563 0 0 1 2.113.669 1.108 1.108 0 0 1 .106.424 1.176 1.176 0 0 1-.176.529q-1.375-.037-3.522-.176-2.924-.245-3.875-.247-.456 0-5.635.176a19.407 19.407 0 0 0-2.043.176 2.5 2.5 0 0 1-.563-.1.773.773 0 0 1-.176-.424.88.88 0 0 1 .67-.774q.139-.071 3.591-.808a2.3 2.3 0 0 0 1.481-.7 3.737 3.737 0 0 0 .6-2.357q.069-2.706.07-14.839a12.416 12.416 0 0 0-.211-3.025 2.689 2.689 0 0 0-.934-.967 10.225 10.225 0 0 0-3.223-1.108m2.958-18.28a2.663 2.663 0 0 1 .9-2.007 3.047 3.047 0 0 1 2.164-.856 3.2 3.2 0 0 1 2.289.95 2.823 2.823 0 0 1 .986 2.043c0 .728.038 3.758-.619 4.4s-1.788-1.373-2.656-1.373a2.965 2.965 0 0 1-2.184-.88 3.1 3.1 0 0 1-.881-2.29M272.592 52.117l.034-.991-.034-4 .034-7.552q0-3.144-.683-4t-4-1.741c-.159-.047-.41-.114-.751-.206v-.372a4.527 4.527 0 0 1 .068-.751 37.233 37.233 0 0 0 8-1.606l1.74-.034q.136 2.324.136 5.194L277 49.213l.239 14.829-.1 7.894q0 2.429.342 2.734.683.685 3.007.717c.319 0 .751.022 1.3.069v.615a3.964 3.964 0 0 1-.034.512 54.1 54.1 0 0 1-2.188.444l-4.955.957a9.931 9.931 0 0 1-1.742.2v-3.28q-.579.172-1.81.682a25.365 25.365 0 0 1-9.808 2.256 10.305 10.305 0 0 1-5.5-1.76 11.492 11.492 0 0 1-4.306-4.9 14.727 14.727 0 0 1-1.5-6.424 16.116 16.116 0 0 1 .991-5.621 13.577 13.577 0 0 1 2.6-4.459 12.626 12.626 0 0 1 2.905-2.307 11.958 11.958 0 0 1 3.109-1.451 20.607 20.607 0 0 1 4.065-.786 18.241 18.241 0 0 1 7.587 1.366 15.281 15.281 0 0 0 1.4.614m.036 21.118q.134-2.288.136-9.432 0-6.048-.562-7.637a6.367 6.367 0 0 0-2.807-3.007 9.266 9.266 0 0 0-5.04-1.418 8.581 8.581 0 0 0-6.637 3.042q-2.723 3.042-2.722 8.985a11.628 11.628 0 0 0 2.944 8.338 9.69 9.69 0 0 0 7.334 3.109 14.6 14.6 0 0 0 4.6-.683 8.411 8.411 0 0 0 2.758-1.3M293.421 75.334c0 1.777-1.762 4.5-3.539 4.5s-2.9-2.726-2.9-4.5a3.218 3.218 0 0 1 6.439 0z"/><path fill="none" d="M0 0h314v100H0z"/></svg>