<?xml version="1.0" encoding="UTF-8"?>
<svg width="851px" height="269px" viewBox="0 0 851 269" version="1.1" xmlns="http://www.w3.org/2000/svg" xmlns:xlink="http://www.w3.org/1999/xlink">
  <title>Nota Logo - Gradient</title>
  <defs>
    <linearGradient x1="82.4139569%" y1="50%" x2="8.07643581%" y2="50%" id="linearGradient-1">
      <stop stop-color="#5100FF" offset="0%"></stop>
      <stop stop-color="#2626FF" offset="50.9897593%"></stop>
      <stop stop-color="#1F72F5" offset="100%"></stop>
    </linearGradient>
  </defs>
  <g id="Nota-Logo---Gradient" stroke="none" stroke-width="1" fill="none" fill-rule="evenodd">
    <path d="M845.622437,215.684291 L658.887996,29.4425257 C651.249707,21.8292285 640.901158,17.5543164 630.112614,17.5556196 L311.397078,17.5556196 C248.17648,17.6304071 196.946824,68.8277612 196.879477,132.001015 L196.879477,180.512075 C196.881937,181.88605 196.054762,183.125828 194.784559,183.651958 C193.514356,184.178088 192.05199,183.88666 191.080945,182.913882 L8.56979055,1.46216002 C7.13135632,0.0316942595 4.97297926,-0.393662587 3.0987377,0.383965746 C1.22449615,1.16159408 0,2.98951408 0,5.01737622 L0,227.652614 C-0.0997921346,237.391356 7.42714978,245.514126 17.1521603,246.16145 C22.0790454,246.398988 26.88827,244.609565 30.4597987,241.209925 C34.0313273,237.810284 36.0534041,233.097178 36.0551013,228.168256 L36.0551013,87.791494 C36.0581099,86.4234675 36.8831441,85.1911174 38.1474136,84.6662158 C39.4116831,84.1413142 40.8677534,84.4265914 41.8400531,85.3896877 L224.324048,266.82784 C225.762483,268.258306 227.92086,268.683663 229.795101,267.906034 C231.669343,267.128406 232.891427,265.300486 232.892838,263.272624 L232.892838,215.236496 C277.907032,257.790103 348.639601,256.810501 392.456281,213.026641 C436.27296,169.242781 437.253297,98.5631921 394.667793,53.5827152 L489.454092,53.5827152 C492.454036,53.5827152 494.885971,56.0128289 494.885971,59.0105262 L494.885971,227.652614 C494.785179,237.391356 502.312121,245.514126 512.037131,246.16145 C516.965062,246.402942 521.77656,244.614838 525.348984,241.214345 C528.921407,237.813852 530.942277,233.098413 530.940072,228.168256 L530.940072,59.0105262 C530.940072,56.0128289 533.372008,53.5827152 536.371952,53.5827152 L616.166263,53.5827152 C619.166207,53.5827152 621.598143,56.0128289 621.598143,59.0105262 L621.598143,227.652614 C621.49735,237.391356 629.024292,245.514126 638.749303,246.16145 C643.681815,246.410623 648.500501,244.625946 652.078957,241.224598 C655.657412,237.823251 657.68198,233.103368 657.679403,228.168256 L657.679403,203.431007 L782.313881,203.431007 L820.174081,241.181433 C827.2202,248.207286 838.632057,248.195135 845.663176,241.154294 C852.694296,234.113453 852.682136,222.710144 845.636017,215.684291 L845.622437,215.684291 Z M311.397078,210.405745 C279.654827,210.405745 251.038377,191.29827 238.892412,161.993694 C226.746447,132.689118 233.463102,98.9589449 255.910206,76.532536 C278.357309,54.1061272 312.113928,47.4003402 341.438368,59.5422786 C370.762808,71.684217 389.879652,100.282539 389.87416,132.001015 C389.821767,175.286344 354.714862,210.360882 311.397078,210.405745 L311.397078,210.405745 Z M657.679398,167.403912 L657.679398,87.3436996 C657.676943,85.9697247 658.504118,84.7299476 659.774321,84.2038174 C661.044524,83.6776873 662.50689,83.9691153 663.477935,84.9418933 L746.178301,167.431051 L657.679398,167.403912 Z" id="Nota-Logo---Grad" fill="url(#linearGradient-1)" fill-rule="nonzero"></path>
  </g>
</svg>