<svg xmlns="http://www.w3.org/2000/svg" width="242.46" height="56"><path d="M28.65 24.62h.17V0h-1.64v24.62h1.47zm-4.11 3.11l.05-.15.4-1.25.05-.15-23.42-7.61-.02.07-.03.09-.22.69-.18.55-.05.16 23.42 7.6zm.45 1.94l-.4-1.25-.05-.15-23.42 7.61.01.04.04.11.28.87.12.37.05.16 23.42-7.61-.05-.15zm1.55 1.45l-1.05-.77h-.01l-.13-.1-14.47 19.92.07.05.06.05.51.36.55.41.07.05.06.04 14.48-19.92-.14-.09zm2.11.26h-1.47V56h1.64V31.38h-.17zm2-1.13l-.14.1-1.05.77-.14.09L43.8 51.13l.04-.03.09-.06.69-.51.37-.26.13-.1-14.47-19.92zm.81-1.98l-.05.15-.4 1.25-.05.15 23.42 7.61.05-.16.1-.31.02-.06.28-.87.03-.08.02-.07v-.01l-23.42-7.6zm-.5-2.09l.05.15.4 1.25.05.15 23.42-7.6-.01-.05-.04-.11-.28-.87-.01-.03-.11-.34-.05-.16-23.42 7.61zm-1.5-1.3l1.05.77.14.1L45.12 5.83l-.13-.1-1.06-.77-.07-.05-.06-.04-14.48 19.92.14.09zm-8.6-16.19l.16-.05 1.24-.41.16-.05-2.29-7.06-.16.05-.29.09-.95.31-.16.05 2.29 7.07zM12.2 4.87l-.01.01-.12.08-1.06.77-.13.1 14.47 19.92.13-.1h.01l1.05-.77.14-.09L12.2 4.87zm-1.23 11.57l.77-1.06.1-.14-6.01-4.36-.1.13-.77 1.06-.09.13 6.01 4.37.09-.13zM7.43 28.65v-1.47H0v1.64h7.43v-.17zm4.31 11.97l-.77-1.06-.09-.13-6.01 4.37.09.13.77 1.06.1.13 6.01-4.37-.1-.13zm9.28 6.74l-.16-.05-2.29 7.07.16.05 1.24.4.15.05 2.3-7.06-.15-.05-1.25-.41zm13.96 0l-1.25.41-.15.05 2.29 7.06.16-.05 1.24-.4.16-.05-2.3-7.07-.15.05zm10.05-7.8l-.77 1.06-.1.13 6.01 4.37.1-.13.77-1.06.09-.13-6.01-4.37-.09.13zm3.54-12.38v1.64H56v-1.64h-7.43zm-4.41-11.93l.1.13.77 1.06.09.13 6.01-4.37-.09-.13-.77-1.06-.1-.13-6.01 4.37zm-9.18-6.61l.15.05 2.3-7.07-.16-.05-.93-.3-.31-.1-.16-.05-2.29 7.06.15.05 1.25.41zm36.89 28.24h11.24v-2.01h-8.83v-5.94h7.52v-2h-7.52v-5.78h8.83v-2.01H71.87v17.74zM96.7 19.14h-2l-6.45 17.74h2.47l1.15-3.37h7.72l1.12 3.37h2.47zm-4.24 12.55l3.34-9.62 3.2 9.62zm38.51 5.19h2.4V21.15h4.98v-2.01h-12.36v2.01h4.98v15.73zm22.67 0h2.41V19.14h-2.41v7.79h-7.76v-7.79h-2.41v17.74h2.41v-7.97h7.76v7.97zm19.8-8.52l-1.27-.59 1.27-.6a3.74 3.74 0 002-3.33c0-2.94-2-4.7-5.23-4.7h-7v17.74h7.32c3.19 0 5.17-1.85 5.17-4.83a3.79 3.79 0 00-2.24-3.69m-7.84-7.21h4.29a2.86 2.86 0 110 5.7h-4.31zm4.53 13.72h-4.55v-6h4.53a3 3 0 110 6m37.59-15.73h-2l-6.45 17.74h2.48l1.15-3.37h7.71l1.12 3.37h2.47zm-4.23 12.55l3.34-9.62 3.23 9.62zm16.66-12.55h2.41v17.74h-2.41zM119 36.88h2.82L117.71 29l.7-.26a4.49 4.49 0 003-4.38c0-3.05-2.28-5.18-5.53-5.18h-6.81v17.7h2.41V21.15h4.16a3.18 3.18 0 110 6.34h-.34v2zm72.57 0h2.81l-4.1-7.88.71-.26a4.49 4.49 0 003-4.38c0-3.05-2.27-5.18-5.52-5.18h-6.77v17.7h2.41V21.15h4.16a3.17 3.17 0 110 6.34h-.34v2zm50.89 0H240V25.09a3.91 3.91 0 10-7.81 0v11.79h-2.46V24.94a6.37 6.37 0 0112.73 0z" fill="#0000c6" data-name="レイヤー 2"/></svg>