<svg
  width="352"
  height="120"
  viewBox="0 0 352 120"
  fill="none"
  xmlns="http://www.w3.org/2000/svg"
>
  <path
    d="M32.6586 36.9231H0.553944C0.407055 36.9231 0.266134 36.8648 0.162267 36.7609C0.0584009 36.6571 7.55773e-06 36.5162 7.55773e-06 36.3693V33.4708C-0.000379298 33.3955 0.0140888 33.3209 0.0426007 33.2512C0.0711127 33.1815 0.11327 33.1181 0.166324 33.0647L32.9725 0.276968C33.1441 0.104699 33.3756 0.00542215 33.6186 0H50.8617C50.9559 0.00344703 51.0479 0.0301907 51.1294 0.0777494C51.2108 0.125308 51.2793 0.192295 51.3286 0.272686C51.3779 0.353078 51.4065 0.44434 51.412 0.538499C51.4175 0.632659 51.3998 0.726715 51.3601 0.812312L33.5447 36.4247C33.464 36.587 33.3363 36.7213 33.1783 36.8102C33.0203 36.8991 32.8392 36.9384 32.6586 36.9231Z"
    fill="#1A8A56"
  />
  <path
    d="M181.625 18.8123L161.317 66.8123L141.009 18.8123C140.968 18.7086 140.897 18.6197 140.805 18.5571C140.713 18.4945 140.604 18.4612 140.493 18.4615H122.529C122.384 18.4662 122.246 18.526 122.143 18.6289C122.04 18.7318 121.98 18.8701 121.976 19.0155V21.0462C121.959 21.1191 121.959 21.1948 121.976 21.2677L151.957 91.9016C151.995 92.0019 152.064 92.0878 152.153 92.1474C152.243 92.2069 152.348 92.2371 152.456 92.2339H170.197C170.304 92.2371 170.41 92.2069 170.499 92.1474C170.589 92.0878 170.657 92.0019 170.696 91.9016L200.677 21.2677C200.694 21.1948 200.694 21.1191 200.677 21.0462V19.0155C200.673 18.8701 200.613 18.7318 200.51 18.6289C200.407 18.526 200.269 18.4662 200.123 18.4615H182.16C182.046 18.4574 181.933 18.489 181.837 18.5518C181.741 18.6146 181.667 18.7056 181.625 18.8123Z"
    fill="#333B35"
  />
  <path
    d="M332.456 37.2737L315.305 77.6861L298.135 37.2737C298.1 37.17 298.033 37.0802 297.943 37.0171C297.854 36.9541 297.747 36.921 297.637 36.9229H279.674C279.527 36.9229 279.386 36.9813 279.282 37.0852C279.178 37.1891 279.12 37.33 279.12 37.4769V39.5076C279.111 39.5812 279.111 39.6555 279.12 39.7291L305.225 101.243L298.523 117.065C298.504 117.131 298.504 117.201 298.523 117.268V119.372C298.523 119.519 298.582 119.66 298.685 119.764C298.789 119.868 298.93 119.926 299.077 119.926H317.04C317.149 119.926 317.255 119.894 317.347 119.835C317.438 119.776 317.511 119.693 317.557 119.594L351.452 39.7291C351.461 39.6555 351.461 39.5812 351.452 39.5076V37.4769C351.452 37.33 351.394 37.1891 351.29 37.0852C351.186 36.9813 351.045 36.9229 350.899 36.9229H332.936C332.83 36.9274 332.728 36.9632 332.642 37.0256C332.557 37.088 332.492 37.1743 332.456 37.2737Z"
    fill="#333B35"
  />
  <path
    d="M112.062 18.4614H94.7078C94.4019 18.4614 94.154 18.7094 94.154 19.0153V91.7537C94.154 92.0596 94.4019 92.3076 94.7078 92.3076H112.062C112.368 92.3076 112.616 92.0596 112.616 91.7537V19.0153C112.616 18.7094 112.368 18.4614 112.062 18.4614Z"
    fill="#333B35"
  />
  <path
    d="M270.554 91.7538V89.6861C270.563 89.6125 270.563 89.5381 270.554 89.4646L260.179 65.003C260.133 64.8933 260.123 64.7722 260.149 64.6564C260.176 64.5406 260.238 64.436 260.326 64.3569C264.463 60.9919 267.457 56.43 268.899 51.2966C270.34 46.1631 270.159 40.7094 268.38 35.6829C266.601 30.6565 263.311 26.3033 258.96 23.2201C254.61 20.137 249.412 18.4748 244.08 18.4614H210.48C210.333 18.4614 210.193 18.5198 210.089 18.6237C209.985 18.7276 209.926 18.8685 209.926 19.0154V91.7538C209.924 91.8272 209.936 91.9004 209.963 91.9688C209.99 92.0371 210.031 92.0992 210.083 92.1512C210.135 92.2031 210.197 92.2438 210.265 92.2708C210.334 92.2977 210.407 92.3102 210.48 92.3076H227.834C227.981 92.3076 228.122 92.2493 228.226 92.1455C228.33 92.0416 228.388 91.9007 228.388 91.7538V70.1537H242.308L251.539 91.9753C251.577 92.0756 251.646 92.1615 251.735 92.2211C251.824 92.2806 251.93 92.3108 252.037 92.3076H270C270.074 92.3102 270.147 92.2977 270.215 92.2708C270.284 92.2438 270.346 92.2031 270.398 92.1512C270.45 92.0992 270.49 92.0371 270.517 91.9688C270.544 91.9004 270.557 91.8272 270.554 91.7538ZM228.351 36.923H244.043C246.002 36.923 247.88 37.701 249.265 39.0859C250.65 40.4708 251.428 42.3491 251.428 44.3076C251.428 46.2661 250.65 48.1444 249.265 49.5293C247.88 50.9142 246.002 51.6922 244.043 51.6922H228.351V36.923Z"
    fill="#333B35"
  />
  <path
    d="M61.4955 0H93.6001C93.747 0 93.8879 0.0583933 93.9918 0.16226C94.0957 0.266126 94.1538 0.407047 94.1538 0.553936V3.47078C94.1531 3.61362 94.1007 3.75139 94.0062 3.85851L61.2 36.6647C61.0266 36.8319 60.7948 36.9245 60.5539 36.9231H43.3661C43.2725 36.923 43.1805 36.8991 43.0986 36.8538C43.0167 36.8084 42.9476 36.7431 42.8978 36.6638C42.848 36.5845 42.8192 36.4939 42.814 36.4005C42.8087 36.307 42.8273 36.2136 42.8678 36.1293L60.6648 0.516977C60.7426 0.362959 60.8611 0.233252 61.0076 0.14209C61.1541 0.0509274 61.3229 0.00176134 61.4955 0Z"
    fill="#A8D182"
  />
  <path
    d="M93.0093 116.437C96.1662 115.292 97.994 112.911 97.994 108.572V107.815H101.391V108.831C101.394 109.448 101.357 110.064 101.28 110.677C102.237 110.372 103.089 109.806 103.742 109.043C104.394 108.28 104.82 107.349 104.973 106.357H92.3447V103.034H108.96V103.735C109.131 106.282 108.322 108.798 106.699 110.768C105.075 112.738 102.76 114.013 100.228 114.332C99.5545 115.797 98.5267 117.07 97.2372 118.037C95.9478 119.004 94.4375 119.634 92.8432 119.871L93.0093 116.437Z"
    fill="#333B35"
  />
  <path
    d="M119.797 120V111.305C117.258 112.227 114.627 112.876 111.951 113.243V109.883C120.277 108.462 123.637 105.545 124.874 102.499H128.696C128.336 103.933 127.695 105.281 126.811 106.466C125.927 107.652 124.817 108.65 123.545 109.403V119.963L119.797 120Z"
    fill="#333B35"
  />
  <path
    d="M148.523 104.234C148.265 114.535 142.135 119.003 134.566 119.575V116.363C140.382 115.477 143.945 112.025 144.572 106.431H132.48V103.108H145.514V101.538H147.6V103.108H148.154V101.538H150.222V104.234H148.523Z"
    fill="#333B35"
  />
  <path
    d="M153.065 113.04V102.849H156.757V113.04H153.065ZM155.188 116.289C161.502 115.957 164.548 114.572 164.548 108.794V102.849H168.24V108.849C168.24 116.769 163.403 119.428 155.169 119.52L155.188 116.289Z"
    fill="#333B35"
  />
  <path d="M172.265 111.932V108.554H188.88V111.932H172.265Z" fill="#333B35" />
</svg>
