<svg width="132" height="40" viewBox="0 0 132 40" fill="none" xmlns="http://www.w3.org/2000/svg">
<path d="M57.8104 31.2387H55.8137V37.6891H54.7532V31.2387H52.7266V30.2891H57.8097V31.2387H57.8104Z" fill="black"/>
<path d="M64.7078 35.2201H60.6128C60.6026 36.1587 61.3539 36.9281 62.2902 36.9376C62.3413 36.9376 62.3916 36.936 62.4428 36.932C63.1021 36.9344 63.7417 36.7055 64.2515 36.2861L64.5111 37.0988C63.8927 37.5693 63.1335 37.8156 62.3578 37.7975C60.9157 37.8714 59.6868 36.759 59.6129 35.3129C59.609 35.2343 59.6082 35.1556 59.6113 35.0769C59.6113 33.4822 60.734 32.3359 62.2201 32.3359C63.7063 32.3359 64.7039 33.4618 64.7039 35.0903L64.7086 35.2201H64.7078ZM63.689 34.5113C63.6355 33.7403 62.9943 33.1431 62.2233 33.1455C61.4389 33.1589 60.7773 33.734 60.6537 34.5113H63.689Z" fill="black"/>
<path d="M66.6719 35.0826C66.6719 33.4446 67.7945 32.3282 69.3743 32.3282C70.0068 32.3235 70.626 32.5099 71.1515 32.8616L70.8392 33.727C70.4325 33.4194 69.9376 33.2518 69.4286 33.2479C68.3995 33.2479 67.7033 33.9764 67.7033 35.0613C67.7033 36.1462 68.3893 36.885 69.3971 36.885C69.9628 36.87 70.5119 36.6883 70.9761 36.3642L71.2153 37.2083C70.6575 37.597 69.9927 37.8015 69.3129 37.7921C67.7733 37.7921 66.6719 36.6977 66.6719 35.0826Z" fill="black"/>
<path d="M78.2447 34.417V37.693H77.2573V34.7506C77.2573 33.7294 76.8419 33.218 76.0206 33.218C75.2118 33.1873 74.5321 33.8206 74.5014 34.6318C74.4998 34.6782 74.4998 34.7246 74.503 34.771V37.6898H73.5156V29.8516H74.503V33.3344C74.8822 32.6712 75.6028 32.2794 76.3636 32.3235C77.5587 32.3219 78.2447 33.0205 78.2447 34.417Z" fill="black"/>
<path d="M85.7681 34.4306V37.6916H84.7808V34.7633C84.7808 33.7422 84.3654 33.2316 83.544 33.2316C82.74 33.1962 82.0595 33.8208 82.0241 34.6272C82.0217 34.6831 82.0225 34.7397 82.0264 34.7956V37.6932H81.0391V32.4417H82.0264V33.3598C82.4088 32.6934 83.1318 32.2993 83.8973 32.3386C85.0923 32.3371 85.7681 33.0459 85.7681 34.4313V34.4306Z" fill="black"/>
<path d="M88.1484 35.0667C88.1484 33.4838 89.2916 32.3359 90.9343 32.3359C92.577 32.3359 93.7303 33.4822 93.7303 35.0667C93.7303 36.6512 92.5872 37.7975 90.9343 37.7975C89.2813 37.7975 88.1484 36.6622 88.1484 35.0667ZM92.7115 35.0667C92.6966 34.0849 91.8909 33.302 90.9122 33.317C89.9335 33.3319 89.1523 34.1399 89.1673 35.1218C89.1822 36.091 89.9682 36.8691 90.9343 36.8723C91.8721 36.9171 92.6682 36.1902 92.7123 35.25C92.7154 35.1894 92.7147 35.1281 92.7115 35.0675V35.0667Z" fill="black"/>
<path d="M96.1328 36.4082V29.8516H97.1225V36.254C97.1225 36.7229 97.3098 36.9109 97.6213 36.9109C97.7983 36.9062 97.9714 36.8637 98.1303 36.7843L98.2664 37.597C97.984 37.7315 97.6748 37.7992 97.3625 37.7952C96.6033 37.7937 96.1336 37.3665 96.1336 36.4074L96.1328 36.4082Z" fill="black"/>
<path d="M99.9609 35.0667C99.9609 33.4838 101.104 32.3359 102.747 32.3359C104.389 32.3359 105.543 33.4822 105.543 35.0667C105.543 36.6512 104.4 37.7975 102.747 37.7975C101.094 37.7975 99.9609 36.6622 99.9609 35.0667ZM104.524 35.0667C104.509 34.0849 103.703 33.302 102.725 33.317C101.746 33.3319 100.965 34.1399 100.98 35.1218C100.995 36.091 101.781 36.8691 102.747 36.8723C103.685 36.9171 104.481 36.1909 104.526 35.2508C104.529 35.1902 104.528 35.1288 104.525 35.0683L104.524 35.0667Z" fill="black"/>
<path d="M112.978 32.4333V37.5093C112.978 39.1559 111.835 39.9788 110.214 39.9788C109.406 40.0119 108.611 39.7696 107.958 39.2912L108.239 38.3534C108.783 38.8349 109.488 39.0922 110.214 39.0725C111.295 39.0725 111.991 38.5517 111.991 37.4983V36.6564C111.604 37.3299 110.873 37.7288 110.099 37.6886C108.623 37.6886 107.562 36.5841 107.562 35.0295C107.562 33.4749 108.592 32.3294 110.099 32.3294C110.87 32.3027 111.595 32.6976 111.991 33.3616V32.4317L112.978 32.434V32.4333ZM112.022 34.998C112.045 34.0303 111.281 33.2279 110.315 33.205C110.309 33.205 110.303 33.205 110.297 33.205C109.355 33.1917 108.582 33.9469 108.569 34.891C108.569 34.9335 108.569 34.976 108.572 35.0185C108.541 35.9743 109.289 36.7737 110.243 36.8044C111.196 36.835 111.993 36.0845 112.024 35.1286C112.026 35.0845 112.025 35.0413 112.024 34.9972L112.022 34.998Z" fill="black"/>
<path d="M115.633 30.7484C115.627 30.385 115.916 30.0844 116.279 30.0781C116.287 30.0781 116.294 30.0781 116.302 30.0781C116.669 30.112 116.94 30.4385 116.905 30.8066C116.875 31.1276 116.622 31.3825 116.302 31.4116C115.939 31.4179 115.64 31.1276 115.634 30.7642C115.634 30.7587 115.634 30.7524 115.634 30.7469L115.633 30.7484ZM115.789 32.4375H116.779V37.6914H115.792L115.789 32.4375Z" fill="black"/>
<path d="M124.302 35.2201H120.207C120.196 36.1587 120.948 36.9281 121.884 36.9376C121.935 36.9376 121.985 36.936 122.037 36.932C122.696 36.9344 123.335 36.7055 123.845 36.2861L124.105 37.0988C123.486 37.5693 122.727 37.8156 121.952 37.7975C120.509 37.8714 119.281 36.759 119.207 35.3129C119.203 35.2343 119.202 35.1556 119.205 35.0769C119.205 33.4822 120.328 32.3359 121.814 32.3359C123.3 32.3359 124.302 33.4594 124.302 35.0848V35.2201H124.302ZM123.283 34.5113C123.229 33.7403 122.588 33.1431 121.817 33.1455C121.033 33.1589 120.371 33.734 120.247 34.5113H123.283Z" fill="black"/>
<path d="M126.359 37.2444L126.599 36.4215C127.082 36.8007 127.678 37.0099 128.292 37.017C128.905 37.017 129.29 36.7566 129.29 36.2979C129.29 35.8393 128.853 35.6725 128.074 35.4325C127.263 35.1824 126.504 34.8803 126.504 33.9102C126.504 32.9402 127.284 32.3359 128.435 32.3359C129.011 32.3344 129.577 32.4854 130.077 32.7742L129.885 33.5853C129.451 33.291 128.942 33.1282 128.419 33.1164C127.868 33.1164 127.484 33.3563 127.484 33.7867C127.484 34.2658 127.972 34.4224 128.586 34.5892C129.551 34.8496 130.259 35.2044 130.259 36.1524C130.259 37.1004 129.521 37.799 128.243 37.799C127.573 37.814 126.916 37.6205 126.36 37.2444H126.359Z" fill="black"/>
<path d="M61.7873 24.2604L56.3132 16.5048V24.2604H52.7344V9.09375H56.3132V16.4631L61.5521 9.09375H65.6423L60.4035 16.2499L66.197 24.2604H61.7881H61.7873Z" fill="black"/>
<path d="M71.7578 9.09375H75.3367V24.2612H71.7578V9.09375Z" fill="black"/>
<path d="M96.0251 9.09532V24.2628H92.5729L85.9706 14.5836V24.2604H82.5625V9.09375H86.0344L92.6162 18.7706V9.09611H96.0243L96.0251 9.09532Z" fill="black"/>
<path d="M112.564 12.2124H108.729V24.2604H105.15V12.2124H101.273V9.09375H112.562V12.2124H112.564Z" fill="black"/>
<path d="M115.555 16.6794C115.555 11.9369 118.963 8.88281 123.521 8.88281C128.08 8.88281 131.488 11.9589 131.488 16.6156C131.488 21.2723 128.101 24.4767 123.5 24.4767C118.899 24.4767 115.555 21.4218 115.555 16.6801V16.6794ZM127.76 16.6794C127.76 14.0737 126.014 12.2792 123.521 12.2792C121.029 12.2792 119.303 14.0737 119.303 16.6794C119.303 19.285 121.029 21.0796 123.521 21.0796C126.014 21.0796 127.765 19.2638 127.765 16.6794H127.76Z" fill="black"/>
<path d="M16.3358 9.13636C12.9119 9.13636 9.73271 10.1316 7.10737 11.8333V7.86185C7.04207 3.50727 3.88411 0 0 0V24.5572C0 24.8223 0.00786736 25.0851 0.0212419 25.3463C0.00865409 25.1543 0.00236021 24.9946 0 24.8711V40H7.10658V37.2921C9.73192 38.9938 12.9111 39.989 16.335 39.989C19.7589 39.989 22.9388 38.9938 25.5642 37.2921C27.3737 36.119 28.922 34.6109 30.106 32.8619C31.7298 30.464 32.6708 27.6144 32.6708 24.5572V16.2634H34.3339C38.9843 16.1981 42.7292 13.0323 42.7292 9.13636H16.3358ZM25.565 24.5572C25.565 29.1446 21.433 32.8619 16.3358 32.8619C11.2385 32.8619 7.11052 29.147 7.10737 24.5627C7.11052 19.9784 11.2417 16.2634 16.3358 16.2634H25.565V24.5572Z" fill="black"/>
</svg>
