<svg id="Layer_1" data-name="Layer 1" xmlns="http://www.w3.org/2000/svg" xmlns:xlink="http://www.w3.org/1999/xlink" viewBox="0 92 184 184"><defs><style>.cls-1{fill:none;}.cls-2{fill:#f20000;}.cls-3{clip-path:url(#clip-path);}.cls-4{fill:#ff3000;}.cls-5{fill:#ff5700;}.cls-6{fill:#fff;}</style><clipPath id="clip-path" transform="translate(-23 69)"><circle class="cls-1" cx="115" cy="115" r="92"/></clipPath></defs><title>JSConf_logo ol</title><path class="cls-2" d="M123.92,182.36a18.81,18.81,0,0,1-10.4,13.95q-4.71,2.44-12.71,2.45a30.38,30.38,0,0,1-8.69-1.25,21.48,21.48,0,0,1-7.5-3.9,19.42,19.42,0,0,1-5.31-6.8,23.06,23.06,0,0,1-2-10.05v-6.2H91.52v3.2a26.62,26.62,0,0,0,.4,4.8,10.17,10.17,0,0,0,1.39,3.75,7.11,7.11,0,0,0,2.75,2.45,10,10,0,0,0,4.56.9,8.88,8.88,0,0,0,4.8-1.1,6.3,6.3,0,0,0,2.45-2.85,11.75,11.75,0,0,0,.9-3.8c.1-1.37.15-2.68.15-3.95v-48.2h15.7v48.9A47.91,47.91,0,0,1,123.92,182.36Z" transform="translate(-23 69)"/><path class="cls-2" d="M150.42,179.56a11.17,11.17,0,0,0,3.45,4.05,14.91,14.91,0,0,0,5,2.3,23.83,23.83,0,0,0,6,.75,31.76,31.76,0,0,0,4.5-.35,15.45,15.45,0,0,0,4.5-1.35,9.88,9.88,0,0,0,3.5-2.75,6.93,6.93,0,0,0,1.4-4.45,6.28,6.28,0,0,0-1.85-4.7,14.74,14.74,0,0,0-4.85-3,48.54,48.54,0,0,0-6.8-2.1c-2.54-.6-5.1-1.27-7.7-2a68,68,0,0,1-7.8-2.45,26.89,26.89,0,0,1-6.8-3.75,17.59,17.59,0,0,1-4.85-5.75,17.37,17.37,0,0,1-1.85-8.35,18.65,18.65,0,0,1,2.35-9.55,21.14,21.14,0,0,1,6.15-6.75,26.84,26.84,0,0,1,8.6-4,36.44,36.44,0,0,1,9.6-1.3,45.66,45.66,0,0,1,10.75,1.25,26.74,26.74,0,0,1,9.15,4.05,20.62,20.62,0,0,1,6.35,7.15,22,22,0,0,1,2.35,10.55h-15.2a12.84,12.84,0,0,0-1.35-5.3,8.92,8.92,0,0,0-3-3.3,12.88,12.88,0,0,0-4.35-1.7,27.1,27.1,0,0,0-5.35-.5,18.1,18.1,0,0,0-3.8.4,10.11,10.11,0,0,0-3.45,1.4,8.57,8.57,0,0,0-2.55,2.5,6.69,6.69,0,0,0-1,3.8,6.36,6.36,0,0,0,.8,3.4,7.05,7.05,0,0,0,3.15,2.4,39.9,39.9,0,0,0,6.5,2.2q4.14,1.09,10.85,2.8,2,.41,5.55,1.45a26.9,26.9,0,0,1,7,3.35,21.26,21.26,0,0,1,6.05,6.15A17.51,17.51,0,0,1,194,176a21.91,21.91,0,0,1-1.9,9.1,19.78,19.78,0,0,1-5.65,7.25,27.17,27.17,0,0,1-9.3,4.75,44.11,44.11,0,0,1-12.85,1.7,45.37,45.37,0,0,1-11.45-1.45,28.77,28.77,0,0,1-9.8-4.55,22.37,22.37,0,0,1-6.75-7.9,23.5,23.5,0,0,1-2.4-11.4h15.2A13.06,13.06,0,0,0,150.42,179.56Z" transform="translate(-23 69)"/><g class="cls-3"><circle class="cls-2" cx="92" cy="184" r="92"/><circle class="cls-4" cx="165.17" cy="92" r="92"/><circle class="cls-5" cx="192.11" cy="92" r="92"/><path class="cls-6" d="M123.92,182.36a18.81,18.81,0,0,1-10.4,13.95q-4.71,2.44-12.71,2.45a30.38,30.38,0,0,1-8.69-1.25,21.48,21.48,0,0,1-7.5-3.9,19.42,19.42,0,0,1-5.31-6.8,23.06,23.06,0,0,1-2-10.05v-6.2H91.52v3.2a26.62,26.62,0,0,0,.4,4.8,10.17,10.17,0,0,0,1.39,3.75,7.11,7.11,0,0,0,2.75,2.45,10,10,0,0,0,4.56.9,8.88,8.88,0,0,0,4.8-1.1,6.3,6.3,0,0,0,2.45-2.85,11.75,11.75,0,0,0,.9-3.8c.1-1.37.15-2.68.15-3.95v-48.2h15.7v48.9A47.91,47.91,0,0,1,123.92,182.36Z" transform="translate(-23 69)"/><path class="cls-6" d="M150.42,179.56a11.17,11.17,0,0,0,3.45,4.05,14.91,14.91,0,0,0,5,2.3,23.83,23.83,0,0,0,6,.75,31.76,31.76,0,0,0,4.5-.35,15.45,15.45,0,0,0,4.5-1.35,9.88,9.88,0,0,0,3.5-2.75,6.93,6.93,0,0,0,1.4-4.45,6.28,6.28,0,0,0-1.85-4.7,14.74,14.74,0,0,0-4.85-3,48.54,48.54,0,0,0-6.8-2.1c-2.54-.6-5.1-1.27-7.7-2a68,68,0,0,1-7.8-2.45,26.89,26.89,0,0,1-6.8-3.75,17.59,17.59,0,0,1-4.85-5.75,17.37,17.37,0,0,1-1.85-8.35,18.65,18.65,0,0,1,2.35-9.55,21.14,21.14,0,0,1,6.15-6.75,26.84,26.84,0,0,1,8.6-4,36.44,36.44,0,0,1,9.6-1.3,45.66,45.66,0,0,1,10.75,1.25,26.74,26.74,0,0,1,9.15,4.05,20.62,20.62,0,0,1,6.35,7.15,22,22,0,0,1,2.35,10.55h-15.2a12.84,12.84,0,0,0-1.35-5.3,8.92,8.92,0,0,0-3-3.3,12.88,12.88,0,0,0-4.35-1.7,27.1,27.1,0,0,0-5.35-.5,18.1,18.1,0,0,0-3.8.4,10.11,10.11,0,0,0-3.45,1.4,8.57,8.57,0,0,0-2.55,2.5,6.69,6.69,0,0,0-1,3.8,6.36,6.36,0,0,0,.8,3.4,7.05,7.05,0,0,0,3.15,2.4,39.9,39.9,0,0,0,6.5,2.2q4.14,1.09,10.85,2.8,2,.41,5.55,1.45a26.9,26.9,0,0,1,7,3.35,21.26,21.26,0,0,1,6.05,6.15A17.51,17.51,0,0,1,194,176a21.91,21.91,0,0,1-1.9,9.1,19.78,19.78,0,0,1-5.65,7.25,27.17,27.17,0,0,1-9.3,4.75,44.11,44.11,0,0,1-12.85,1.7,45.37,45.37,0,0,1-11.45-1.45,28.77,28.77,0,0,1-9.8-4.55,22.37,22.37,0,0,1-6.75-7.9,23.5,23.5,0,0,1-2.4-11.4h15.2A13.06,13.06,0,0,0,150.42,179.56Z" transform="translate(-23 69)"/></g></svg>