<svg height="62.58" viewBox="0 0 298.19 62.58" width="298.19" xmlns="http://www.w3.org/2000/svg"><g fill="#00747f"><path d="m78.6 16.24a9 9 0 0 0 -7.66 3.7q-2.7 3.7-2.71 10.31 0 13.75 10.37 13.75a32.74 32.74 0 0 0 10.53-2.17v7.31a29.28 29.28 0 0 1 -11.35 2.11q-9 0-13.78-5.44t-4.78-15.61a25.34 25.34 0 0 1 2.35-11.2 16.86 16.86 0 0 1 6.73-7.4 20.06 20.06 0 0 1 10.3-2.6 27.86 27.86 0 0 1 12.08 2.89l-2.82 7.11a47.1 47.1 0 0 0 -4.66-1.91 14.06 14.06 0 0 0 -4.6-.85z"/><path d="m119.6 50.7-1.16-4h-.44a9.11 9.11 0 0 1 -3.92 3.39 13.44 13.44 0 0 1 -5.79 1.19q-5.57 0-8.39-3c-1.88-2-2.83-4.83-2.83-8.54v-20.49h8.62v18.37a8.82 8.82 0 0 0 1.21 5.11 4.44 4.44 0 0 0 3.87 1.7q3.61 0 5.23-2.41t1.61-8v-14.77h8.61v31.45z"/><path d="m151.71 18.66a13.79 13.79 0 0 1 2.91.26l-.62 8.08a9.79 9.79 0 0 0 -2.54-.28 9.16 9.16 0 0 0 -6.46 2.07 7.62 7.62 0 0 0 -2.3 5.91v16h-8.61v-31.45h6.52l1.27 5.29h.43a11.91 11.91 0 0 1 4-4.26 9.82 9.82 0 0 1 5.4-1.62z"/><path d="m173.48 51.26q-7.62 0-11.91-4.19t-4.3-11.87q0-7.91 4-12.22t11-4.32q6.71 0 10.42 3.8t3.67 10.54v4.17h-20.36a8.27 8.27 0 0 0 2.18 5.71 7.68 7.68 0 0 0 5.7 2.05 23.94 23.94 0 0 0 5.39-.59 26.79 26.79 0 0 0 5.31-1.89v6.55a20.29 20.29 0 0 1 -4.83 1.68 31 31 0 0 1 -6.27.58zm-1.21-26.49a5.43 5.43 0 0 0 -4.27 1.73 8 8 0 0 0 -1.78 4.91h12.09a7.16 7.16 0 0 0 -1.67-4.91 5.62 5.62 0 0 0 -4.37-1.73z"/><path d="m220.47 50.7-3-9.79h-15l-3 9.79h-9.47l14.58-41.29h10.7l14.63 41.29zm-5.08-17.1q-4.15-13.3-4.67-15t-.72-2.81q-.93 3.62-5.34 17.81z"/><path d="m243 61v-9.2q0-.61-.45-4.56h.45a10.49 10.49 0 0 0 8.72 4 10.79 10.79 0 0 0 6.44-1.94 12.27 12.27 0 0 0 4.23-5.65 23.71 23.71 0 0 0 1.48-8.75q0-7.65-3.16-12a10.27 10.27 0 0 0 -8.71-4.24 10 10 0 0 0 -9 4.67h-.4l-1.21-4.08h-7v41.75zm0-27c0-3 .54-5.15 1.52-6.46a5.47 5.47 0 0 1 4.66-1.95 4.87 4.87 0 0 1 4.48 2.32q1.43 2.31 1.43 7 0 9.51-5.79 9.51a5.41 5.41 0 0 1 -4.79-2.2q-1.51-2.29-1.51-7.36z"/><path d="m277.32 61v-9.2q0-.61-.45-4.56h.45a10.5 10.5 0 0 0 8.73 4 10.81 10.81 0 0 0 6.44-1.94 12.25 12.25 0 0 0 4.22-5.65 23.51 23.51 0 0 0 1.48-8.75q0-7.65-3.16-12a10.27 10.27 0 0 0 -8.75-4.31 10 10 0 0 0 -9 4.67h-.39l-1.22-4.08h-7v41.82zm0-27q.06-4.5 1.53-6.46a5.45 5.45 0 0 1 4.66-1.95 4.86 4.86 0 0 1 4.49 2.26c1 1.54 1.43 3.86 1.43 7q0 9.51-5.79 9.51a5.42 5.42 0 0 1 -4.79-2.2c-1-1.46-1.51-3.88-1.51-7.26z"/><path d="m44.23 32.31-10.23-4.76-1 9.45a3.4 3.4 0 0 1 -1.95 2.72l-20.74 9.64a2.72 2.72 0 0 0 -1.56 2.77l.54 5a1.36 1.36 0 0 0 1.36 1.21h6.09a4.12 4.12 0 0 0 1.73-.38l14.68-6.85 5-2.33 5.37-2.5a4.1 4.1 0 0 0 2.34-3.28l.72-6.51a4.1 4.1 0 0 0 -2.35-4.18z"/><path d="m38.83 1.42h-6.76a2.68 2.68 0 0 0 -1.15.25l-29.34 13.68a2.74 2.74 0 0 0 -1.58 2.78l.66 5.87a2.77 2.77 0 0 0 1.56 2.18l12.58 5.9-.93-8.54a2 2 0 0 1 1.13-2.08l23-10.73a2.72 2.72 0 0 0 1.55-2.18l.62-5.62a1.36 1.36 0 0 0 -1.34-1.51z"/><path d="m19.64 41.07 9.06-4.22a1.39 1.39 0 0 0 .78-1.09c.39-3.5 2-17.85 2-17.85l-12.8 5.95a1.36 1.36 0 0 0 -.78 1.38z"/><path d="m15.37 2.08.31 2.78 10.43-4.86h-8.87a1.88 1.88 0 0 0 -1.87 2.08z"/><path d="m26.69 61.36.39-3.53-5.33 2.49.11 1a1.37 1.37 0 0 0 1.36 1.22h2.12a1.36 1.36 0 0 0 1.35-1.18z"/></g></svg>