<svg xmlns="http://www.w3.org/2000/svg" width="300" height="92" fill="none" viewBox="0 0 300 92"><path fill="#96989B" d="M60.321 78.542v1.84H57.6V64.08h2.721v6.483c.879-1.22 2.1-2.204 4.029-2.204 2.764 0 5.486 2.182 5.486 6.12v.042c0 3.915-2.679 6.12-5.486 6.12-1.971-.022-3.193-1.007-4.029-2.098zm6.75-4.043v-.043c0-2.268-1.564-3.766-3.385-3.766-1.843 0-3.45 1.52-3.45 3.766v.043c0 2.246 1.607 3.765 3.45 3.765 1.864.022 3.385-1.433 3.385-3.765zm13.543-5.905h2.829l-4.693 12.11c-.943 2.438-1.993 3.337-3.9 3.337-1.114 0-1.971-.278-2.807-.727l.921-2.012c.493.278 1.029.45 1.586.45.75 0 1.221-.343 1.671-1.348l-4.928-11.81h2.914l3.322 8.75 3.085-8.75zm34.243-7.66h-8.186v15.17h-5.828l.686 8.172h13.328V60.934z"/><path fill="#96989B" d="M104.807 60.934H91.5v30.339h8.164V69.107h5.85l-.707-8.173zm108.986 3.616c-4.5 0-8.143 3.594-8.143 8.044 0 4.45 3.643 8.045 8.143 8.045 4.5 0 8.143-3.594 8.143-8.044 0-4.43-3.643-8.045-8.143-8.045zm0 13.565c-2.914 0-5.293-2.482-5.293-5.52 0-3.06 2.379-5.52 5.293-5.52s5.293 2.481 5.293 5.52c0 3.059-2.357 5.52-5.293 5.52zm-66.086-4.343h7.8V71.29h-7.8v-3.98h8.722v-2.482h-11.508v15.555H156.6V77.9h-8.893v-4.13zm85.286 4.128V64.829h-2.807v15.555h10.907V77.9h-8.1zM131.121 64.828h-6.15v15.555h2.808v-4.985h3.342c3.386 0 5.85-2.375 5.85-5.285s-1.8-5.285-5.85-5.285zm-.235 8.088h-3.107V67.31h3.107c2.314 0 3.343 1.263 3.343 2.803.021 1.54-1.2 2.803-3.343 2.803zm47.357-2.803c0-2.91-1.8-5.285-5.85-5.285h-6.15v15.555h2.807v-4.985h3.043l3.493 4.985h3.278l-3.857-5.499c1.972-.856 3.236-2.674 3.236-4.771zm-6.064 2.803h-3.108V67.31h3.108c2.314 0 3.342 1.263 3.342 2.803s-1.221 2.803-3.342 2.803zm24.364-.45c-.986-.62-2.186-.963-3.664-1.326-2.658-.664-3.086-1.134-3.086-2.033 0-1.348 1.307-1.947 2.593-1.947 1.885 0 3.471.899 4.264 1.434a7.86 7.86 0 011.35 1.155v-3.423c-1.179-.792-3.193-1.798-5.614-1.798-3.043 0-5.25 1.926-5.25 4.579 0 3.316 3.171 4.108 5.078 4.6 2.957.749 3.622 1.198 3.622 2.396 0 .62-.215 1.027-.707 1.327-.558.342-1.415.535-2.443.535-2.25 0-4.715-1.626-5.443-2.354v3.274c.043.021.086.064.15.085 1.028.62 3.086 1.648 5.314 1.648 3.579 0 5.786-1.733 5.786-4.515.021-1.583-.643-2.802-1.95-3.637z"/><path fill="#67B0C4" d="M75.707 39.539v6.675l67.95-38.79V.75l-67.95 38.79z"/><path fill="#213E52" d="M116.55 30.467v15.298h6.536V26.659l-6.536 3.808zM219.279 3.723h-5.829V14.89h5.829V3.723zm10.328 0h-5.828V14.89h5.828V3.723zm-21.964 5.819v-5.82h-40.522c-.685 2.29-1.735 4.494-3.814 7.318-1.071 1.455-2.678 3.188-4.221 4.536v7.595c1.671-1.134 5.357-3.23 9.15-8.044 1.393-1.776 2.507-3.723 3.407-5.563h36v-.022zM177.107 20.71v5.82H210.9c-1.414 3.081-3.536 5.584-6.514 7.531-5.743 3.745-14.293 5.734-26.272 5.734l-9.814.064v5.884h9.814c17.315 0 39.107-3.53 40.993-25.054h-42v.022zm121.522 18.871c-4.908-2.096-8.829-4.664-12.386-7.959 4.286-3.722 8.164-8.665 10.5-15.854 1.478-4.557 1.65-9.542 1.628-12.024h-53.785v5.82h47.164c-.193 1.412-.493 2.888-.964 4.279-3.107 9.564-9.429 14.313-15.772 18.058-11.271 6.61-28.5 7.787-32.678 7.937v6.098c4.307-.129 23.014-1.091 35.85-8.623a63.368 63.368 0 002.914-1.797c4.757 4.643 10.5 8.173 17.507 10.57V39.58h.022zM60.879 5.07H.3v5.82h60.579V5.07zm0 34.897H.3v5.82h60.579v-5.82zM54.043 22.53H.3v5.819h53.743v-5.82z"/></svg>