<?xml version="1.0" encoding="UTF-8"?>
<svg id="LayerX_Logo" data-name="LayerX Logo" xmlns="http://www.w3.org/2000/svg" width="1176" height="433" viewBox="0 0 1176 433">
  <defs>
    <style>
      .cls-1 {
        fill: #fff;
      }

      .cls-2 {
        fill: #86b6ff;
      }

      .cls-3 {
        fill: #172c34;
      }

      .cls-4 {
        fill: #4111ff;
      }

      .cls-5 {
        fill: #524dff;
      }
    </style>
  </defs>
  <g id="Symbol_Logotype_Horizontal" data-name="Symbol + Logotype  |  Horizontal">
    <g>
      <rect class="cls-1" width="1176" height="433"/>
      <g>
        <g>
          <path class="cls-3" d="m1039.53,276.87l-29.12-59.82c-.32-.66-.32-1.44,0-2.1l28.6-58.26c.78-1.59-.38-3.44-2.14-3.44h-18.89c-1.14,0-2.18.65-2.68,1.67l-23.98,48.85c-.85,1.88-3.75,1.88-4.6,0l-24.07-48.85c-.5-1.02-1.54-1.66-2.68-1.66h-18.89c-1.77,0-2.92,1.85-2.14,3.44l28.71,58.62c.32.66.32,1.44,0,2.1l-29.08,59.46c-.78,1.59.38,3.44,2.14,3.44h18.87c1.14,0,2.18-.65,2.68-1.67l24.46-50.01c.84-1.89,3.76-1.89,4.6,0l24.49,50.01c.5,1.02,1.54,1.67,2.68,1.67h18.88c1.76,0,2.92-1.85,2.15-3.43Z"/>
          <path class="cls-3" d="m469.12,277.92v-122.27c0-1.32,1.07-2.39,2.39-2.39h18.01c1.32,0,2.39,1.07,2.39,2.39v101.67c0,1.32,1.07,2.39,2.39,2.39h55.84c1.32,0,2.39,1.07,2.39,2.39v15.82c0,1.32-1.07,2.39-2.39,2.39h-78.62c-1.32,0-2.39-1.07-2.39-2.39Z"/>
          <path class="cls-3" d="m931.55,205.36v-16.29c0-1.24-.94-2.27-2.17-2.38-11.35-1-22.42,2.44-29.64,10.21-.73.79-2.05.25-2.05-.82v-5.25c0-1.32-1.07-2.39-2.39-2.39h-17.41c-1.32,0-2.39,1.07-2.39,2.39v87.09c0,1.32,1.07,2.39,2.39,2.39h16.92c1.32,0,2.39-1.07,2.39-2.39v-45.92c-.2-18.43,14.56-27.08,31.62-24.09,1.45.22,2.75-.89,2.75-2.36v-.19Z"/>
          <path class="cls-3" d="m745.09,188.61c-1.29,0-2.43.82-2.83,2.05-3.84,11.69-9.01,27.45-14,42.8h0c-2.91,8.92-5.57,17.19-8.3,25.63-1.36,3.2-6.13,1.21-8.24-.42-2.86-2.37-5.4-9.87-6.39-13.13-5.25-18.19-9.85-36.45-14.71-54.72-.35-1.31-1.53-2.22-2.89-2.22h-15.79c-1.57,0-2.71,1.49-2.31,3,5.3,19.67,15.58,57.79,17.99,66.09,3.8,13.1,11.12,20.67,22.18,22.85,1.42.28,2.27,1.77,1.78,3.13-4.83,13.49-14.39,15.74-28.79,15.58-1.33-.02-2.42,1.05-2.42,2.39v15.45c0,1.3,1.03,2.36,2.33,2.39,5.42.12,11.39.02,15.65-.72,14.52-2.67,28.19-10.61,34.14-30.73,4.15-14.04,22.86-71.12,31.13-96.29.51-1.54-.64-3.13-2.27-3.13h-16.26Z"/>
          <path class="cls-3" d="m843.7,254.44c-.97-.97-2.55-.93-3.46.1-9,10.67-25.92,11.99-37.49,6.22-8.51-3.94-12.7-13.38-13.31-17.88-.29-1.47.85-2.83,2.35-2.83h66.3c1.57,0,2.89-1.22,2.98-2.79.85-14.02-2.46-26.43-10.62-35.69-8-9.15-19.84-14.51-31.96-14.88-27.08-2.73-50.89,20.82-50.17,47.67,0,13.75,5.71,27.32,16.03,36.5,21.55,18.92,56.02,11.28,68.44-4.22.82-.94.77-2.36-.12-3.25l-8.97-8.96Zm-51.8-29.45c-2.48-.05-2.8-2.72-1.82-4.51,4.08-12.31,17.11-16.97,26.14-16.97,10.87,0,22.69,7.58,24.38,18.74.22,1.44-.91,2.74-2.36,2.74h-46.34Z"/>
          <path class="cls-3" d="m652.84,190.91c0-1.32-1.07-2.39-2.39-2.39h-16.72c-1.32,0-2.39,1.07-2.39,2.39v6.04c0,1.08-1.31,1.59-2.06.82-7.11-7.3-17.44-10.16-27.37-10.14-24.32,0-44.11,21.19-44.11,47.24s19.79,47.24,44.11,47.24c11.1.15,22.27-3.78,29.96-11.88,1.14-1.2,3.14-.89,3.86.6,4.05,8.35,13.73,11.7,23.11,11.18,1.27-.07,2.28-1.11,2.28-2.39v-13.65c0-1.17-.85-2.15-2-2.35-7.8-2.05-5.96-11.52-6.3-19.39v-53.3Zm-26.93,64.24c-5.35,5.35-12.18,8.12-20.11,8.12s-14.39-2.77-19.74-8.12c-5.17-5.35-7.75-12.18-7.75-20.29s2.58-14.94,7.75-20.29c5.35-5.35,11.81-8.12,19.74-8.12s14.76,2.77,20.11,8.12c5.53,5.35,8.3,12.18,8.3,20.29s-2.77,14.94-8.3,20.29Z"/>
        </g>
        <g>
          <path class="cls-2" d="m333.29,315.21l-69.91-40.36c-2.4-1.39-2.4-4.86,0-6.25l60.35-34.84c2.89-1.67,6.46-1.67,9.35,0l69.91,40.36c2.4,1.39,2.4,4.86,0,6.25l-60.35,34.84c-2.89,1.67-6.46,1.67-9.35,0Z"/>
          <path class="cls-5" d="m157.48,243.61c-2.89,1.67-4.68,4.76-4.68,8.1v69.69c0,2.78,3.01,4.51,5.41,3.12l89.25-51.53c2.89-1.67,4.68-4.76,4.68-8.1v-40.93s-30.32-17.5-30.32-17.5l-64.34,37.15Z"/>
          <path class="cls-5" d="m314.82,214.76v-28.61l-112.5-64.95c-2.89-1.67-6.46-1.67-9.35,0l-54,31.18c-2.4,1.39-2.4,4.86,0,6.25l82.85,47.83,24.91-14.38c2.4-1.39,5.41.35,5.41,3.12v28.76l24.11,13.92c2.89,1.67,6.46,1.67,9.35,0l34.64-20c-2.4,1.39-5.41-.35-5.41-3.12Z"/>
          <path class="cls-4" d="m246.72,192.08l-24.91,14.38,30.32,17.5v-28.76c0-2.78-3.01-4.51-5.41-3.12Z"/>
          <path class="cls-5" d="m383.77,181.21c2.89-1.67,4.68-4.76,4.68-8.1v-58.86c0-2.78-3.01-4.51-5.41-3.12l-63.54,36.68c-2.89,1.67-4.68,4.76-4.68,8.1v30.26l24.77,14.3c2.4,1.39,2.4,4.86,0,6.25l44.18-25.5Z"/>
          <path class="cls-4" d="m339.59,200.46l-24.77-14.3v28.61c0,2.78,3.01,4.51,5.41,3.12l19.36-11.18c2.4-1.39,2.4-4.86,0-6.25Z"/>
        </g>
      </g>
    </g>
  </g>
</svg>