<?xml version="1.0" encoding="UTF-8"?>
<svg id="_レイヤー_1" data-name="レイヤー 1" xmlns="http://www.w3.org/2000/svg" viewBox="0 0 171.642 50">
  <defs>
    <style>
      .cls-1 {
        fill: none;
      }

      .cls-2 {
        fill: #e2750f;
      }
    </style>
  </defs>
  <g>
    <path class="cls-2" d="M32.923,27.411c-.346.562-.949.913-1.609.933-.664.023-1.284-.294-1.662-.834l-2.177-3.11-1.682,4.918c-.233.678-.817,1.175-1.523,1.295-.708.121-1.422-.154-1.866-.718l-1.48-1.88-1.077,3.456c-.261.838-1.035,1.376-1.868,1.376-.193,0-.388-.029-.582-.089-1.032-.322-1.608-1.418-1.286-2.449l2.181-7.008c.216-.694.799-1.21,1.514-1.343.714-.131,1.443.144,1.893.715l1.555,1.976,1.766-5.158c.239-.698.849-1.201,1.578-1.304.73-.101,1.454.213,1.877.816l2.674,3.818,3.603-5.875c-2.344-2.828-5.882-4.63-9.841-4.63-7.055,0-12.775,5.72-12.775,12.775s5.72,12.776,12.775,12.776,12.774-5.719,12.774-12.776c0-1.491-.258-2.922-.727-4.253l-4.032,6.573Z"/>
    <path class="cls-2" d="M38.554,12.134c-1.403,0-2.539,1.136-2.539,2.539s1.136,2.538,2.539,2.538,2.539-1.136,2.539-2.538-1.137-2.539-2.539-2.539Z"/>
    <g>
      <polygon points="55.851 17.727 52.985 25.73 49.99 17.727 48.316 17.727 46.271 30.188 48.654 30.188 49.733 22.655 49.764 22.655 52.423 30.349 53.244 30.349 55.996 22.655 56.028 22.655 56.994 30.188 59.377 30.188 57.559 17.727 55.851 17.727"/>
      <path d="M64.389,22.027c-2.464,0-4.154,1.755-4.154,4.218,0,2.447,1.674,4.202,4.154,4.202s4.153-1.754,4.153-4.202c0-2.462-1.69-4.218-4.153-4.218ZM64.389,28.451c-1.16,0-1.868-1.144-1.868-2.206,0-1.094.708-2.221,1.868-2.221s1.868,1.127,1.868,2.221c0,1.062-.71,2.206-1.868,2.206Z"/>
      <path d="M74.341,22.027c-.805,0-1.594.274-2.06.982h-.033v-.725h-2.254v7.904h2.254v-3.91c0-.951.017-2.447,1.352-2.447,1.272,0,1.224,1.224,1.224,2.173v4.184h2.254v-4.829c0-1.834-.611-3.332-2.737-3.332Z"/>
      <path d="M82.351,22.027c-2.56,0-3.832,1.884-3.832,4.281s1.497,4.138,3.944,4.138c1.659,0,3.044-.885,3.591-2.463l-2.077-.338c-.306.627-.773,1.078-1.514,1.078-1.176,0-1.561-1.128-1.561-2.125h5.199v-.274c0-2.383-1.159-4.298-3.75-4.298ZM80.966,25.198c.112-.821.611-1.593,1.513-1.593.869,0,1.385.787,1.498,1.593h-3.01Z"/>
      <polygon points="90.897 26.777 89.012 22.284 86.452 22.284 89.817 28.983 87.209 34.406 89.688 34.406 95.437 22.284 92.924 22.284 90.897 26.777"/>
      <path class="cls-2" d="M110.872,22.027c-2.464,0-4.155,1.755-4.155,4.218,0,2.447,1.674,4.202,4.155,4.202s4.154-1.754,4.154-4.202c0-2.462-1.692-4.218-4.154-4.218ZM110.872,28.451c-1.159,0-1.868-1.144-1.868-2.206,0-1.094.709-2.221,1.868-2.221s1.868,1.127,1.868,2.221c0,1.062-.708,2.206-1.868,2.206Z"/>
      <path class="cls-2" d="M118.601,23.105h-.032v-.821h-2.254v7.904h2.254v-3.556c0-1.224.16-2.609,1.723-2.609.337,0,.659.096.934.29l.274-2.093c-.291-.113-.612-.193-.935-.193-.837,0-1.513.387-1.964,1.078Z"/>
      <path class="cls-2" d="M141.793,23.025c-.548-.645-1.385-.999-2.207-.999-2.269,0-3.606,2.076-3.606,4.17,0,2.139,1.32,4.25,3.639,4.25.82,0,1.659-.354,2.142-.982h.032v.723h2.222v-7.904h-2.222v.742ZM140.135,28.451c-1.16,0-1.868-1.161-1.868-2.221s.708-2.206,1.868-2.206,1.883,1.142,1.883,2.206-.724,2.221-1.883,2.221Z"/>
      <path class="cls-2" d="M148.165,23.105h-.032v-.821h-2.254v7.904h2.254v-3.556c0-1.224.162-2.609,1.723-2.609.338,0,.66.096.933.29l.274-2.093c-.29-.113-.612-.193-.934-.193-.837,0-1.512.387-1.964,1.078Z"/>
      <path class="cls-2" d="M157.254,18.05v4.958h-.032c-.498-.628-1.336-.982-2.157-.982-2.27,0-3.607,2.076-3.607,4.17,0,2.139,1.321,4.25,3.64,4.25.821,0,1.656-.354,2.124-.999h.032v.74h2.254v-12.138h-2.254ZM155.612,28.451c-1.158,0-1.868-1.161-1.868-2.221s.71-2.206,1.868-2.206,1.868,1.142,1.868,2.206-.709,2.221-1.868,2.221Z"/>
      <polygon class="cls-2" points="100.125 30.188 102.492 30.188 102.492 24.844 105.921 24.844 105.921 22.783 102.492 22.783 102.492 20.111 106.145 20.111 106.145 18.05 100.125 18.05 100.125 30.188"/>
      <path class="cls-2" d="M139.224,20.315c-.007,0,.183-2.215.183-2.216-.46.002-.92.061-1.367.172-1.888.471-3.362,1.814-4.378,3.429-.746,1.186-1.297,2.487-1.88,3.758-.075.164-.15.328-.225.492-.05.109-.119.246-.197.394l-1.788-4.316h-1.252l-1.829,4.432-1.746-4.175h-2.463l3.637,8.065h1.16l1.883-4.812,1.693,4.812c.353,0,1.141,0,1.141,0,0,0,.02-.047.03-.067.325-.676,2.22-4.912,2.973-6.383.327-.639.777-1.397,1.234-1.943.83-.992,1.977-1.677,3.191-1.642Z"/>
    </g>
  </g>
  <rect class="cls-1" width="171.642" height="50"/>
</svg>