<svg fill="none" height="38" viewBox="0 0 180 38" width="180" xmlns="http://www.w3.org/2000/svg" xmlns:xlink="http://www.w3.org/1999/xlink"><clipPath id="a"><path d="m0 0h180v38h-180z"/></clipPath><g clip-path="url(#a)"><path d="m86.3697 30.5347-11.5055-15.0084v13.4917c0 1.5353-1.2523 2.7798-2.7973 2.7798s-2.7974-1.2445-2.7974-2.7798v-19.34426c0-1.91675 1.5637-3.47062 3.4926-3.47062 1.0909 0 2.1185.50711 2.781 1.37011l11.0209 14.38957v-12.97993c0-1.53525 1.2524-2.77975 2.7973-2.77975 1.5427 0 2.7951 1.2445 2.7951 2.77743v19.61415c0 1.7702-1.4444 3.2031-3.2234 3.2031-1.0066 0-1.9547-.4676-2.5633-1.2631z" fill="#000"/><path d="m117.866 31.0098c-.845.4024-1.772.7071-2.778.9141-1.007.2071-2.135.3094-3.385.3094-1.889 0-3.643-.3419-5.263-1.0235-1.619-.6816-3.017-1.6143-4.194-2.796-1.178-1.1817-2.098-2.5774-2.7603-4.1871-.6625-1.6097-.9925-3.3264-.9925-5.1547v-.0722c0-1.8283.33-3.5404.9925-5.1384.6623-1.5958 1.5823-2.9984 2.7603-4.20571 1.177-1.20727 2.586-2.15634 4.232-2.85186 1.643-.69551 3.46-1.04211 5.445-1.04211 1.201 0 2.301.0977 3.293.29309.993.1954 1.897.46291 2.704.80485.333.13957.993.54665 1.697 1.01886 1.36.91185 1.616 2.80068.541 4.03358-.887 1.0165-2.397 1.2445-3.532.5094-.405-.2629-.815-.4955-1.227-.6979-1.044-.5117-2.214-.7676-3.514-.7676-1.079 0-2.078.207-2.998.6211s-1.711.9863-2.374 1.719c-.662.7304-1.177 1.5772-1.545 2.5402-.367.963-.552 1.9935-.552 3.0891v.0744c0 1.0957.185 2.1331.552 3.1078.368.9746.878 1.8283 1.526 2.5587.651.7305 1.435 1.3097 2.355 1.7377s1.931.6397 3.036.6397c1.473 0 2.718-.2675 3.734-.8049.445-.2349.887-.5048 1.332-.8141 1.042-.7281 2.451-.6304 3.348.2698 1.093 1.0979.966 2.8961-.267 3.8358-.878.67-1.761 1.2887-2.168 1.4818z" fill="#000"/><path d="m176.821 31.0098c-.845.4024-1.772.7071-2.778.9141-1.007.2071-2.135.3094-3.385.3094-1.889 0-3.643-.3419-5.262-1.0235-1.62-.6816-3.018-1.6143-4.195-2.796-1.178-1.1817-2.098-2.5774-2.76-4.1871-.663-1.6097-.993-3.3264-.993-5.1547v-.0722c0-1.8283.33-3.5404.993-5.1384.662-1.5958 1.582-2.9984 2.76-4.20571 1.177-1.20727 2.586-2.15634 4.232-2.85186 1.643-.69551 3.46-1.04211 5.445-1.04211 1.201 0 2.301.0977 3.294.29309.992.1954 1.896.46291 2.703.80485.333.13957.993.54665 1.697 1.01886 1.36.91185 1.616 2.80068.541 4.03358-.887 1.0165-2.397 1.2445-3.532.5094-.405-.2629-.815-.4955-1.227-.6979-1.044-.5117-2.214-.7676-3.514-.7676-1.079 0-2.078.207-2.998.6211s-1.711.9863-2.374 1.719c-.662.7304-1.177 1.5772-1.545 2.5402-.367.963-.552 1.9935-.552 3.0891v.0744c0 1.0957.185 2.1331.552 3.1078.368.9746.878 1.8283 1.526 2.5587.651.7305 1.435 1.3097 2.355 1.7377s1.932.6397 3.036.6397c1.473 0 2.718-.2675 3.734-.8049.445-.2349.887-.5048 1.332-.8141 1.042-.7281 2.451-.6304 3.348.2698 1.093 1.0979.966 2.8961-.267 3.8358-.878.67-1.761 1.2887-2.168 1.4818z" fill="#000"/><path d="m150.121 24.047c-.662 1.5609-1.601 2.9124-2.814 4.0592-1.214 1.1468-2.661 2.047-4.342 2.7053s-3.525.9863-5.538.9863h-7.25c-1.543 0-2.795-1.2445-2.795-2.7775v-20.03975c0-1.53293 1.252-2.77743 2.795-2.77743h7.25c2.01 0 3.857.32334 5.538.97001s3.128 1.54224 4.342 2.6867c1.215 1.14677 2.154 2.49367 2.814 4.04057.663 1.5492.993 3.224.993 5.0268v.0744c0 1.8051-.33 3.4869-.993 5.0454zm-4.932-5.0454c0-1.1212-.19-2.1563-.571-3.1077-.382-.9514-.908-1.7679-1.583-2.4495-.674-.6815-1.491-1.2119-2.446-1.5911-.957-.3768-2.011-.5675-3.165-.5675h-4.38v15.4293h4.38c1.152 0 2.208-.1837 3.165-.5489.958-.3653 1.772-.8886 2.446-1.5725.675-.6816 1.201-1.4864 1.583-2.4122.379-.9259.571-1.9633.571-3.1078z" fill="#000"/><path d="m35.2189 24.6939c-.1147 0-.2318-.0093-.3465-.0163-.0749-.0047-.1498-.007-.2223-.014-.1054-.0116-.2107-.0302-.3161-.0488-.0819-.014-.1662-.0233-.2481-.0396-.0796-.0163-.1568-.0395-.2364-.0605-.1054-.0255-.2107-.0511-.3137-.0837-.0515-.0163-.1007-.0372-.1522-.0558-.1287-.0442-.2551-.0884-.3792-.1419-.0374-.0163-.0726-.0349-.11-.0535-.1358-.0628-.2715-.1256-.4026-.1977-.0375-.021-.0726-.0442-.1077-.0652-.1288-.0744-.2552-.1512-.3769-.2349-.0094-.007-.0187-.0116-.0281-.0186-.0398-.0279-.0749-.0605-.1147-.0884-.103-.0745-.206-.1512-.302-.2326-.0632-.0535-.1217-.1094-.1802-.1629-.0749-.0697-.1498-.1372-.2224-.2116-.0655-.0675-.1287-.1373-.1896-.2071-.0609-.0674-.1194-.1349-.1779-.2047-.0609-.0744-.1171-.1512-.1732-.2303-.0235-.0325-.0492-.0628-.0703-.0953.0071.0116.0141.0232.0211.0349l9.3729 13.3032c1.8165 2.5774 5.3911 3.2031 7.9848 1.398s3.2234-5.3571 1.4068-7.9345l-3.0572-4.3382h-11.0115c-.0164 0-.0328 0-.0491-.0024z" fill="#036eb7"/><path d="m51.6095 13.3047h-5.3302l-4.0147 5.6967 4.0147 5.6968h5.3302c3.1648 0 5.7328-2.5495 5.7328-5.6968 0-3.1449-2.5656-5.6967-5.7328-5.6967z" fill="#4cb3f8"/><path d="m39.9637 22.2643c-1.1236 1.5958-2.9214 2.4402-4.7449 2.4262.0163 0 .0327.0023.0491.0023h11.0115l-4.0146-5.6967-2.3011 3.2659z" fill="#014db2"/><path d="m30.7942 15.4418c.0562-.0698.1171-.1372.1779-.2047.0632-.0698.1241-.1396.1897-.207.0725-.0721.1474-.1419.2223-.2117.0609-.0558.1194-.1117.1803-.1628.0983-.0814.199-.1582.302-.2326.0398-.028.0749-.0605.1147-.0884.0093-.007.0187-.0117.0281-.0186.1217-.0838.2481-.1606.3768-.235.0352-.0209.0703-.0442.1077-.0651.1311-.0721.2669-.1349.4026-.1977.0375-.0163.0726-.0373.1101-.0535.124-.0535.2528-.0977.3792-.1419.0515-.0186.1007-.0396.1522-.0559.103-.0325.2083-.0558.3136-.0837.0796-.0209.1569-.0442.2365-.0605.0819-.0163.1662-.0279.2481-.0395.1053-.0163.2083-.0373.3137-.0466.0749-.0069.1498-.0093.2247-.0139.1147-.007.2294-.0163.3441-.0163.0164 0 .0328-.0023.0492-.0023h11.0115l3.0572-4.33829c1.8165-2.57738 1.1868-6.12941-1.4069-7.9345-2.5937-1.805097-6.1682-1.179362-7.9847 1.39801l-9.3729 13.30328s-.0141.0232-.0211.0349c.0234-.0326.0468-.0628.0702-.0954.0562-.0768.1124-.1535.1732-.2303z" fill="#53cec0"/><path d="m35.2188 13.3054c1.8212-.0139 3.6213.8328 4.7449 2.4262l2.3011 3.2659 4.0146-5.6967h-11.0115c-.0164 0-.0328 0-.0491.0023z" fill="#1991bb"/><path d="m35.2188 13.3047c-.117 0-.2294.0093-.3441.0163-.0749.0046-.1498.0069-.2247.0139-.1053.0117-.2107.0303-.3137.0466-.0819.0139-.1662.0232-.2481.0395-.0796.0163-.1569.0395-.2365.0605-.1053.0256-.2083.0512-.3136.0837-.0515.0163-.1007.0372-.1522.0558-.1264.0442-.2551.0884-.3792.1419-.0375.0163-.0726.0349-.11.0535-.1358.0605-.2692.1257-.4027.1978-.0374.0209-.0702.0442-.1076.0651-.1265.0744-.2529.1512-.3769.2349-.0492.0326-.0937.0698-.1428.107-.103.0768-.206.1536-.302.2327-.0632.0535-.1217.1093-.1802.1628-.075.0698-.1522.1396-.2224.2117-.0656.0674-.1288.1372-.1896.207-.0609.0675-.1194.1349-.1779.2047-.0609.0744-.1171.1512-.1733.2303-.0398.0535-.0772.107-.1147.1628-.0608.0884-.117.1791-.1709.2698-.0046.007-.007.0117-.0117.0187-.0421.0697-.0819.1419-.1194.214-.0468.086-.0889.1721-.1287.2605-.0421.0884-.0819.1768-.117.2652-.0305.0744-.0586.1512-.0867.2279-.0374.1024-.0702.2047-.103.3071-.0163.0535-.0304.1093-.0444.1628-.0047.0186-.0094.0372-.0141.0558-.0257.1047-.0515.2094-.0725.3164-.0071.0419-.0141.0814-.0211.1233s-.0141.0861-.0211.1303c-.014.093-.0281.1884-.0351.2814-.0047.0442-.0047.0907-.0094.1349-.0046.0628-.007.128-.0093.1931-.0024.0675-.007.1372-.007.2047s.0046.1372.007.2047c0 .0651.0047.1279.0093.1931.0024.0442.0047.0907.0094.1349.0094.0954.0234.1884.0351.2815.007.0442.0117.086.0211.1302.007.0419.0117.0814.0211.1233.021.107.0444.2117.0725.3164.0047.0186.0094.0372.0141.0558.014.0535.0281.1093.0444.1628.0305.1047.0656.2047.103.3071.0281.0767.0562.1512.0867.2279.0374.0908.0772.1768.117.2652.0421.0884.0843.1745.1287.2605.0375.0722.0796.1419.1194.2141.0047.0069.0071.0116.0117.0186.0539.0907.1101.1814.1709.2698.0375.0558.0749.1093.1147.1628.0562.0768.1124.1559.1733.2303.0561.0698.117.1373.1779.2047.0632.0698.124.1396.1896.207.0702.0722.1474.1419.2224.2117.0608.0559.1193.1117.1802.1629.096.0814.199.1581.302.2326.0468.0349.0936.0721.1428.107.124.0837.2504.1605.3769.2349.0374.0209.0702.0442.1076.0651.1311.0722.2669.1373.4027.1978.0374.0163.0725.0372.11.0535.1241.0535.2528.0977.3792.1419.0515.0186.1007.0395.1522.0558.103.0326.2083.0558.3136.0837.0796.021.1569.0442.2365.0605.0819.0163.1638.0256.2481.0396.1053.0162.2084.0372.316.0488.0749.007.1475.0093.2224.014.1147.0069.2294.0162.3465.0162 1.8212.014 3.6213-.8327 4.7449-2.4261l2.3011-3.2659-2.3011-3.266c-1.1236-1.5957-2.9237-2.4401-4.7449-2.4261z" fill="#003e86"/><path d="m22.1241 24.6939c.1147 0 .2317-.0093.3464-.0163.0749-.0047.1498-.007.2224-.014.1054-.0116.2107-.0302.316-.0488.082-.014.1662-.0233.2482-.0396.0796-.0163.1568-.0395.2364-.0605.1053-.0255.2107-.0511.3137-.0837.0515-.0163.1006-.0372.1521-.0558.1288-.0442.2552-.0884.3793-.1419.0374-.0163.0725-.0349.11-.0535.1357-.0628.2715-.1256.4026-.1977.0375-.021.0726-.0442.1077-.0652.1287-.0744.2551-.1512.3769-.2349.0093-.007.0187-.0116.0281-.0186.0398-.0279.0749-.0605.1147-.0884.103-.0745.206-.1512.3019-.2326.0632-.0535.1218-.1094.1803-.1629.0749-.0697.1498-.1372.2224-.2116.0655-.0675.1287-.1373.1896-.2071.0608-.0674.1194-.1349.1779-.2047.0609-.0744.117-.1512.1732-.2303.0234-.0325.0492-.0628.0702-.0953-.007.0116-.014.0232-.021.0349l-9.3729 13.3032c-1.8166 2.5774-5.3911 3.2031-7.98479 1.398-2.5937-1.8051-3.2234-5.3571-1.40687-7.9345l3.05716-4.3382h11.0116c.0163 0 .0327 0 .0491-.0024z" fill="#036eb7"/><path d="m5.73283 13.3047h5.33017l4.0146 5.6967-4.0146 5.6968h-5.33017c-3.16488 0-5.73283-2.5495-5.73283-5.6968 0-3.1449 2.56561-5.6967 5.73283-5.6967z" fill="#4cb3f8"/><path d="m17.3792 22.2643c1.1236 1.5958 2.9214 2.4402 4.745 2.4262-.0164 0-.0328.0023-.0492.0023h-11.0115l4.0146-5.6967 2.3011 3.2659z" fill="#014db2"/><path d="m26.5478 15.4418c-.0562-.0698-.1171-.1372-.1779-.2047-.0633-.0698-.1241-.1396-.1897-.207-.0725-.0721-.1474-.1419-.2223-.2117-.0609-.0558-.1194-.1117-.1803-.1628-.0983-.0814-.199-.1582-.302-.2326-.0398-.028-.0749-.0605-.1147-.0884-.0093-.007-.0187-.0117-.0281-.0186-.1217-.0838-.2481-.1606-.3768-.235-.0352-.0209-.0703-.0442-.1077-.0651-.1311-.0721-.2669-.1349-.4027-.1977-.0374-.0163-.0725-.0373-.11-.0535-.124-.0535-.2528-.0977-.3792-.1419-.0515-.0186-.1007-.0396-.1522-.0559-.103-.0325-.2083-.0558-.3136-.0837-.0796-.0209-.1569-.0442-.2365-.0605-.0819-.0163-.1662-.0279-.2481-.0395-.1053-.0163-.2083-.0373-.3137-.0466-.0749-.0069-.1498-.0093-.2247-.0139-.1147-.007-.2294-.0163-.3441-.0163-.0164 0-.0328-.0023-.0492-.0023h-11.0115l-3.05719-4.33829c-1.81652-2.57738-1.18683-6.12941 1.40687-7.9345 2.59372-1.805097 6.16822-1.179362 7.98472 1.39801l9.3729 13.30328s.0141.0232.0211.0349c-.0234-.0326-.0468-.0628-.0702-.0954-.0562-.0768-.1124-.1535-.1732-.2303z" fill="#53cec0"/><path d="m22.1242 13.3054c-1.8213-.0139-3.6214.8328-4.745 2.4262l-2.3011 3.2659-4.0146-5.6967h11.0115c.0164 0 .0328 0 .0492.0023z" fill="#1991bb"/><path d="m22.1236 13.3047c.117 0 .2294.0093.3441.0163.0749.0046.1498.0069.2247.0139.1054.0117.2107.0303.3137.0466.0819.0139.1662.0232.2481.0395.0796.0163.1569.0395.2365.0605.1053.0256.2083.0512.3137.0837.0515.0163.1006.0372.1521.0558.1264.0442.2552.0884.3792.1419.0375.0163.0726.0349.1101.0535.1357.0605.2692.1257.4026.1978.0374.0209.0702.0442.1077.0651.1264.0744.2528.1512.3769.2349.0491.0326.0936.0698.1427.107.103.0768.206.1536.302.2327.0632.0535.1217.1093.1803.1628.0749.0698.1521.1396.2224.2117.0655.0674.1287.1372.1896.207.0608.0675.1194.1349.1779.2047.0608.0744.117.1512.1732.2303.0398.0535.0772.107.1147.1628.0609.0884.117.1791.1709.2698.0047.007.007.0117.0117.0187.0421.0697.0819.1419.1194.214.0468.086.0889.1721.1287.2605.0422.0884.082.1768.1171.2652.0304.0744.0585.1512.0866.2279.0374.1024.0702.2047.103.3071.0164.0535.0304.1093.0445.1628.0046.0186.0093.0372.014.0558.0258.1047.0515.2094.0726.3164.007.0419.014.0814.021.1233.0071.0419.0141.0861.0211.1303.0141.093.0281.1884.0351.2814.0047.0442.0047.0907.0094.1349.0047.0628.007.128.0093.1931.0024.0675.0071.1372.0071.2047s-.0047.1372-.0071.2047c0 .0651-.0046.1279-.0093.1931-.0024.0442-.0047.0907-.0094.1349-.0093.0954-.0234.1884-.0351.2815-.007.0442-.0117.086-.0211.1302-.007.0419-.0117.0814-.021.1233-.0211.107-.0445.2117-.0726.3164-.0047.0186-.0094.0372-.014.0558-.0141.0535-.0281.1093-.0445.1628-.0305.1047-.0656.2047-.103.3071-.0281.0767-.0562.1512-.0866.2279-.0375.0908-.0773.1768-.1171.2652-.0421.0884-.0842.1745-.1287.2605-.0375.0722-.0796.1419-.1194.2141-.0047.0069-.007.0116-.0117.0186-.0539.0907-.11.1814-.1709.2698-.0375.0558-.0749.1093-.1147.1628-.0562.0768-.1124.1559-.1732.2303-.0562.0698-.1171.1373-.1779.2047-.0632.0698-.1241.1396-.1896.207-.0703.0722-.1475.1419-.2224.2117-.0609.0559-.1194.1117-.1803.1629-.096.0814-.199.1581-.302.2326-.0468.0349-.0936.0721-.1427.107-.1241.0837-.2505.1605-.3769.2349-.0375.0209-.0703.0442-.1077.0651-.1311.0722-.2669.1373-.4026.1978-.0375.0163-.0726.0372-.1101.0535-.124.0535-.2528.0977-.3792.1419-.0515.0186-.1006.0395-.1521.0558-.103.0326-.2084.0558-.3137.0837-.0796.021-.1569.0442-.2365.0605-.0819.0163-.1638.0256-.2481.0396-.1053.0162-.2083.0372-.316.0488-.0749.007-.1475.0093-.2224.014-.1147.0069-.2294.0162-.3464.0162-1.8212.014-3.6214-.8327-4.745-2.4261l-2.3011-3.2659 2.3011-3.266c1.1236-1.5957 2.9238-2.4401 4.745-2.4261z" fill="#003e86"/><path d="m27.1592 16.3789c.0374.0698.0702.1419.103.214-.0328-.0721-.0679-.1419-.103-.214z" fill="#0868aa"/><path d="m27.625 20.3952c.0187-.0745.0421-.1489.0562-.2233-.0141.0721-.0375.1395-.0539.2117 0 .0046 0 .0093-.0023.0116z" fill="#0868aa"/><path d="m27.0117 21.8803c.0258-.0442.0539-.0861.0796-.1303-.0234.0419-.0515.0814-.0749.1233 0 0 0 .0023-.0023.0046z" fill="#0868aa"/><path d="m27.7344 19.8529c.0117-.0791.0281-.1605.0351-.2396-.007.0674-.0211.1349-.0304.2 0 .014-.0024.0256-.0047.0396z" fill="#0868aa"/><path d="m27.0117 16.1178c-.0444-.0744-.0889-.1512-.1357-.2233.0445.0698.0866.1396.1287.2117.0024.0047.0047.007.007.0116z" fill="#0868aa"/><path d="m27.791 18.7108c-.0047-.0721-.007-.1465-.0117-.2186.0023.0372.0023.0744.0047.1093.0023.0372.0047.0721.007.1093z" fill="#0868aa"/><path d="m27.7345 18.1446c-.0093-.0651-.0187-.1302-.0304-.1954.007.0349.0094.0698.0164.107.0047.0303.0094.0605.014.0907z" fill="#0868aa"/><path d="m27.791 19.2865c.0047-.0791.0094-.1605.0117-.2396 0 .0535-.007.1047-.007.1558 0 .0279 0 .0559-.0023.0838z" fill="#0868aa"/><path d="m27.6244 17.6025c-.0164-.0628-.0305-.1256-.0492-.1884.014.0488.0257.0977.0374.1442.0047.0139.0071.0279.0118.0419z" fill="#0868aa"/><g fill="#54a8de"><path d="m26.8753 15.8936c-.0281-.0419-.0562-.0861-.0843-.128.0164.021.0281.0442.0422.0675.014.0209.028.0395.0421.0605z"/><path d="m27.0908 21.7537c.0234-.0442.0468-.0884.0702-.1326-.007.0163-.0163.0302-.0257.0442-.0164.0302-.0281.0605-.0445.0884z"/><path d="m26.7891 22.2334c.0281-.0419.0561-.0861.0842-.1279-.014.0209-.0281.0395-.0421.0604-.014.0233-.0281.0466-.0421.0675z"/><path d="m27.5755 17.4201c-.014-.0442-.0234-.0907-.0374-.1349.0117.0372.0187.0767.0304.1139 0 .007.0047.014.007.021z"/><path d="m27.1591 16.3826c-.0234-.0442-.0445-.0884-.0702-.1326.0164.0279.0281.0582.0444.0884.0071.0163.0164.0302.0258.0442z"/><path d="m27.7047 17.9514c-.0071-.0419-.0117-.0837-.0211-.1233.007.0349.0117.0698.0164.1047 0 .007.0023.0116.0047.0186z"/><path d="m27.7789 18.4937c-.0023-.0349-.0047-.0721-.0094-.107.0024.0279.0024.0535.0047.0814 0 .0093.0024.0163.0024.0256z"/><path d="m27.2687 16.6054s-.0046-.0093-.007-.0116v.0023c0 .0023.0024.007.0047.0093z"/><path d="m27.3956 16.8912c-.0187-.0442-.0351-.0908-.0538-.1373.0164.0349.0257.0721.0398.107.0047.0093.0094.0186.014.0303z"/><path d="m27.8008 18.9981v.0488c0-.0163.0023-.0325.0023-.0488s0-.0326-.0023-.0489z"/><path d="m27.5381 20.7169c.014-.0442.0234-.0907.0374-.1349 0 .007-.0046.014-.007.021-.0117.0372-.0187.0767-.0304.1139z"/><path d="m27.3418 21.2466c.0187-.0442.0351-.0907.0538-.1372-.0046.0093-.0093.0186-.014.0302-.0141.0349-.0258.0721-.0398.107z"/><path d="m27.7695 19.6109c.0047-.0349.0047-.0698.0094-.107 0 .0093-.0023.0163-.0023.0256-.0024.0279-.0024.0535-.0047.0814z"/><path d="m27.6836 20.1741c.0094-.0396.014-.0814.0211-.1233 0 .007-.0024.0116-.0047.0186-.007.0349-.0094.0698-.0164.1047z"/><path d="m27.2617 21.4062s.0047-.0093.007-.0117c0 .0024-.0023.007-.0046.0093v.0024z"/></g><path d="m27.6273 20.3828c.0188-.0698.0398-.1396.0539-.2117.007-.0349.0117-.0698.0164-.1047-.0211.107-.0445.2117-.0726.3164z" fill="#0868aa"/><path d="m27.6273 20.3828c.0188-.0698.0398-.1396.0539-.2117.007-.0349.0117-.0698.0164-.1047-.0211.107-.0445.2117-.0726.3164z" fill="#54a8de"/><path d="m27.2645 16.5965s0 0 0-.0024c-.0328-.0721-.0679-.1442-.103-.214-.007-.0162-.0164-.0302-.0258-.0442.0469.0861.089.1722.1311.2606z" fill="#0868aa"/><path d="m27.2645 16.5965s0 0 0-.0024c-.0328-.0721-.0679-.1442-.103-.214-.007-.0162-.0164-.0302-.0258-.0442.0469.0861.089.1722.1311.2606z" fill="#54a8de"/><path d="m27.7844 18.6037c-.0024-.0373-.0024-.0745-.0047-.1094 0-.0093-.0024-.0162-.0024-.0255.0047.0441.0047.0907.0094.1349z" fill="#0868aa"/><path d="m27.7844 18.6037c-.0024-.0373-.0024-.0745-.0047-.1094 0-.0093-.0024-.0162-.0024-.0255.0047.0441.0047.0907.0094.1349z" fill="#54a8de"/><path d="m24.3363 24.2344c-.1241.0535-.2529.0977-.3793.1419.1288-.0442.2575-.0884.3793-.1419z" fill="#0868aa"/><path d="m24.3363 24.2344c-.1241.0535-.2529.0977-.3793.1419.1288-.0442.2575-.0884.3793-.1419z" fill="#54a8de"/><path d="m27.7959 19.2047c0-.0535.007-.1047.007-.1559 0-.0162 0-.0325 0-.0488 0 .0675-.0047.1372-.007.2047z" fill="#0868aa"/><path d="m27.7959 19.2047c0-.0535.007-.1047.007-.1559 0-.0162 0-.0325 0-.0488 0 .0675-.0047.1372-.007.2047z" fill="#54a8de"/><path d="m27.7393 19.8127c.0093-.0674.0234-.1326.0304-.2.0023-.0279.0023-.0535.0047-.0815-.0094.0954-.0234.1885-.0351.2815z" fill="#0868aa"/><path d="m27.7393 19.8127c.0093-.0674.0234-.1326.0304-.2.0023-.0279.0023-.0535.0047-.0815-.0094.0954-.0234.1885-.0351.2815z" fill="#54a8de"/><path d="m27.4675 17.0912c-.0234-.0651-.0468-.1325-.0726-.1977-.0047-.0093-.0094-.0186-.014-.0302.0304.0744.0585.1512.0866.2279z" fill="#0868aa"/><path d="m27.4675 17.0912c-.0234-.0651-.0468-.1325-.0726-.1977-.0047-.0093-.0094-.0186-.014-.0302.0304.0744.0585.1512.0866.2279z" fill="#54a8de"/><path d="m27.6128 17.5636c-.0117-.0489-.0234-.0977-.0374-.1442 0-.007-.0047-.014-.007-.021.0163.0559.0304.1094.0444.1652z" fill="#0868aa"/><path d="m27.6128 17.5636c-.0117-.0489-.0234-.0977-.0374-.1442 0-.007-.0047-.014-.007-.021.0163.0559.0304.1094.0444.1652z" fill="#54a8de"/><path d="m27.7203 18.0592c-.007-.0349-.0094-.0721-.0164-.107 0-.007-.0023-.0116-.0047-.0186.007.0419.0141.0837.0211.1233z" fill="#0868aa"/><path d="m27.7203 18.0592c-.007-.0349-.0094-.0721-.0164-.107 0-.007-.0023-.0116-.0047-.0186.007.0419.0141.0837.0211.1233z" fill="#54a8de"/><path d="m25.331 23.6836c-.1241.0861-.2505.1628-.3769.2349.1288-.0744.2552-.1512.3769-.2349z" fill="#0868aa"/><path d="m25.331 23.6836c-.1241.0861-.2505.1628-.3769.2349.1288-.0744.2552-.1512.3769-.2349z" fill="#54a8de"/><path d="m27.0137 21.8757c.0257-.0418.0515-.0814.0749-.1232.0164-.028.0281-.0582.0445-.0884-.0375.0721-.0796.1419-.1194.2116z" fill="#0868aa"/><path d="m27.0137 21.8757c.0257-.0418.0515-.0814.0749-.1232.0164-.028.0281-.0582.0445-.0884-.0375.0721-.0796.1419-.1194.2116z" fill="#54a8de"/><path d="m27.4678 20.9086c.0234-.0651.0491-.1279.0702-.1931.0117-.0372.0187-.0767.0304-.1139-.0304.1023-.0655.2047-.1006.307z" fill="#0868aa"/><path d="m27.4678 20.9086c.0234-.0651.0491-.1279.0702-.1931.0117-.0372.0187-.0767.0304-.1139-.0304.1023-.0655.2047-.1006.307z" fill="#54a8de"/><path d="m27.2646 21.4019s.0024-.007.0047-.0093c.0234-.0512.0492-.0977.0726-.1489.0164-.0349.0257-.0721.0398-.107-.0375.0884-.0773.1768-.1171.2652z" fill="#0868aa"/><path d="m27.2646 21.4019s.0024-.007.0047-.0093c.0234-.0512.0492-.0977.0726-.1489.0164-.0349.0257-.0721.0398-.107-.0375.0884-.0773.1768-.1171.2652z" fill="#54a8de"/><path d="m22.6902 24.6602c-.075.0069-.1475.0093-.2224.0139.0749-.0046.1498-.007.2224-.0139z" fill="#0868aa"/><path d="m22.6902 24.6602c-.075.0069-.1475.0093-.2224.0139.0749-.0046.1498-.007.2224-.0139z" fill="#54a8de"/><path d="m26.5461 22.5586c-.0562.0698-.1171.1372-.1779.2047.0608-.0675.1193-.1349.1779-.2047z" fill="#0868aa"/><path d="m26.5461 22.5586c-.0562.0698-.1171.1372-.1779.2047.0608-.0675.1193-.1349.1779-.2047z" fill="#54a8de"/><path d="m23.254 24.5742c-.0819.0163-.1639.0256-.2481.0396.0819-.014.1662-.0233.2481-.0396z" fill="#0868aa"/><path d="m23.254 24.5742c-.0819.0163-.1639.0256-.2481.0396.0819-.014.1662-.0233.2481-.0396z" fill="#54a8de"/><path d="m26.7188 22.3269c.0234-.0326.0491-.0628.0702-.0954.0164-.0209.0281-.0442.0421-.0674-.0374.0535-.0749.1093-.1123.1628z" fill="#0868aa"/><path d="m26.7188 22.3269c.0234-.0326.0491-.0628.0702-.0954.0164-.0209.0281-.0442.0421-.0674-.0374.0535-.0749.1093-.1123.1628z" fill="#54a8de"/><path d="m24.846 23.9844c-.1334.0721-.2669.1372-.4026.1977.1381-.0628.2715-.1256.4026-.1977z" fill="#0868aa"/><path d="m24.846 23.9844c-.1334.0721-.2669.1372-.4026.1977.1381-.0628.2715-.1256.4026-.1977z" fill="#54a8de"/><path d="m27.0049 16.1081c-.0422-.0721-.0843-.1419-.1288-.2117-.014-.0209-.0281-.0395-.0421-.0605.0608.0884.117.1792.1709.2722z" fill="#0868aa"/><path d="m27.0049 16.1081c-.0422-.0721-.0843-.1419-.1288-.2117-.014-.0209-.0281-.0395-.0421-.0605.0608.0884.117.1792.1709.2722z" fill="#54a8de"/><path d="m26.1804 22.9688c-.0702.0721-.1475.1418-.2224.2116.0749-.0698.1498-.1372.2224-.2116z" fill="#0868aa"/><path d="m26.1804 22.9688c-.0702.0721-.1475.1418-.2224.2116.0749-.0698.1498-.1372.2224-.2116z" fill="#54a8de"/><path d="m23.802 24.4297c-.103.0326-.2084.0558-.3137.0837.1053-.0256.2107-.0511.3137-.0837z" fill="#0868aa"/><path d="m23.802 24.4297c-.103.0326-.2084.0558-.3137.0837.1053-.0256.2107-.0511.3137-.0837z" fill="#54a8de"/><path d="m27.7695 18.3841c-.0094-.0791-.0234-.1605-.0351-.2396 0 .0117.0023.0256.0047.0396.0093.0674.0234.1326.0304.2z" fill="#5abdb2"/><path d="m27.8027 18.9505c0-.0791-.007-.1605-.0117-.2396 0 .028 0 .0559.0024.0838 0 .0535.007.1047.007.1558z" fill="#5abdb2"/><path d="m27.7793 19.5077c.007-.0721.0094-.1465.0117-.2186 0 .0372-.0047.0721-.007.1093-.0024.0372-.0024.0744-.0047.1093z" fill="#5abdb2"/><path d="m26.876 22.1061c.0491-.0744.0936-.1489.1357-.2233-.0023.0047-.0046.007-.007.0116-.0421.0722-.0842.1419-.1287.2117z" fill="#5abdb2"/><path d="m27.0913 16.2475c-.0234-.0442-.0538-.0861-.0796-.1303 0 0 0 .0023.0024.0046.0257.0419.0515.0815.0749.1233z" fill="#5abdb2"/><path d="m27.5752 20.583c.0187-.0629.0328-.1257.0492-.1885-.0047.014-.0071.0279-.0118.0419-.0117.0489-.0234.0977-.0374.1442z" fill="#5abdb2"/><path d="m27.6831 17.8288c-.0164-.0745-.0374-.1489-.0561-.2233 0 .0046 0 .0093.0023.0116.0187.0698.0398.1396.0538.2117z" fill="#5abdb2"/><path d="m27.2686 16.6055c.0234.0511.0491.0977.0725.1488-.021-.0511-.0491-.1-.0725-.1488z" fill="#5abdb2"/><path d="m27.7041 20.0509c.0117-.0652.0211-.1303.0304-.1954-.0046.0302-.0093.0604-.014.0907-.007.0349-.0094.0721-.0164.107z" fill="#5abdb2"/><path d="m27.2622 21.4062c-.0328.0722-.0679.1443-.103.2141.0374-.0698.0702-.1419.103-.2141z" fill="#5abdb2"/><path d="m22.6904 13.3398c.1054.0117.2107.0303.3137.0466-.1053-.0163-.2083-.0373-.3137-.0466z" fill="#0868aa"/><path d="m22.6904 13.3398c.1054.0117.2107.0303.3137.0466-.1053-.0163-.2083-.0373-.3137-.0466z" fill="#5abdb2"/><path d="m24.3359 13.7656c.0375.0163.0726.0349.1077.0512-.0374-.0163-.0725-.0372-.1077-.0512z" fill="#0868aa"/><path d="m24.3359 13.7656c.0375.0163.0726.0349.1077.0512-.0374-.0163-.0725-.0372-.1077-.0512z" fill="#5abdb2"/><path d="m23.0064 24.6133c-.1053.0163-.2083.0372-.316.0488.1054-.0116.2107-.0302.316-.0488z" fill="#0868aa"/><path d="m23.0064 24.6133c-.1053.0163-.2083.0372-.316.0488.1054-.0116.2107-.0302.316-.0488z" fill="#5abdb2"/><path d="m22.1211 13.3047c.117 0 .2294.0093.3441.0163-.1147-.007-.2294-.0163-.3441-.0163z" fill="#0868aa"/><path d="m22.1211 13.3047c.117 0 .2294.0093.3441.0163-.1147-.007-.2294-.0163-.3441-.0163z" fill="#5abdb2"/><path d="m22.4675 24.6758c-.1147.007-.2294.0163-.3464.0163.1147 0 .2317-.0093.3464-.0163z" fill="#0868aa"/><path d="m22.4675 24.6758c-.1147.007-.2294.0163-.3464.0163.1147 0 .2317-.0093.3464-.0163z" fill="#5abdb2"/><path d="m26.3703 22.7617c-.0632.0698-.1241.1396-.1896.207.0655-.0674.1287-.1372.1896-.207z" fill="#0868aa"/><path d="m26.3703 22.7617c-.0632.0698-.1241.1396-.1896.207.0655-.0674.1287-.1372.1896-.207z" fill="#5abdb2"/><path d="m25.9576 23.1797c-.0609.0558-.1194.1116-.1803.1628.0632-.0535.1218-.1093.1803-.1628z" fill="#0868aa"/><path d="m25.9576 23.1797c-.0609.0558-.1194.1116-.1803.1628.0632-.0535.1218-.1093.1803-.1628z" fill="#5abdb2"/><path d="m26.7191 22.3281c-.0562.0768-.1123.1559-.1732.2303.0609-.0744.117-.1512.1732-.2303z" fill="#0868aa"/><path d="m26.7191 22.3281c-.0562.0768-.1123.1559-.1732.2303.0609-.0744.117-.1512.1732-.2303z" fill="#5abdb2"/><path d="m25.3611 23.6665c.0398-.0279.0749-.0605.1147-.0884-.0468.0349-.0936.0721-.1428.1047.0094-.007.0187-.0116.0281-.0186z" fill="#0868aa"/><path d="m25.3611 23.6665c.0398-.0279.0749-.0605.1147-.0884-.0468.0349-.0936.0721-.1428.1047.0094-.007.0187-.0116.0281-.0186z" fill="#5abdb2"/><path d="m24.4436 24.1836c-.0374.0163-.0725.0372-.1077.0512.0375-.0163.0726-.0349.1077-.0512z" fill="#0868aa"/><path d="m24.4436 24.1836c-.0374.0163-.0725.0372-.1077.0512.0375-.0163.0726-.0349.1077-.0512z" fill="#5abdb2"/><path d="m24.8457 14.0156c.0375.021.0702.0442.1053.0652-.0351-.021-.0702-.0442-.1053-.0652z" fill="#0868aa"/><path d="m24.8457 14.0156c.0375.021.0702.0442.1053.0652-.0351-.021-.0702-.0442-.1053-.0652z" fill="#5abdb2"/><path d="m26.5459 15.4414c.0609.0744.117.1512.1732.2303-.0562-.0768-.1123-.1535-.1732-.2303z" fill="#0868aa"/><path d="m26.5459 15.4414c.0609.0744.117.1512.1732.2303-.0562-.0768-.1123-.1535-.1732-.2303z" fill="#5abdb2"/><path d="m26.1807 15.0273c.0655.0675.1287.1373.1896.2071-.0632-.0698-.1241-.1396-.1896-.2071z" fill="#0868aa"/><path d="m26.1807 15.0273c.0655.0675.1287.1373.1896.2071-.0632-.0698-.1241-.1396-.1896-.2071z" fill="#5abdb2"/><path d="m27.0043 21.8952s.0047-.007.007-.0116c0 0 0-.0024.0024-.0047-.0024.0047-.0071.0116-.0117.0163z" fill="#0868aa"/><path d="m27.0043 21.8952s.0047-.007.007-.0116c0 0 0-.0024.0024-.0047-.0024.0047-.0071.0116-.0117.0163z" fill="#5abdb2"/><path d="m27.6273 17.6199s0-.0093-.0023-.0116c-.0047-.014-.007-.0279-.0117-.0419.0047.0186.0093.0372.014.0558z" fill="#0868aa"/><path d="m27.6273 17.6199s0-.0093-.0023-.0116c-.0047-.014-.007-.0279-.0117-.0419.0047.0186.0093.0372.014.0558z" fill="#5abdb2"/><path d="m27.0142 16.1218s0-.0024-.0023-.0047c-.0023-.0047-.0047-.007-.007-.0116.0023.0046.007.0116.0117.0163z" fill="#0868aa"/><path d="m27.0142 16.1218s0-.0024-.0023-.0047c-.0023-.0047-.0047-.007-.007-.0116.0023.0046.007.0116.0117.0163z" fill="#5abdb2"/><path d="m27.7394 18.185c0-.014-.0023-.0256-.0047-.0396-.0046-.0302-.0093-.0605-.014-.0907.007.0419.014.0861.0187.1279z" fill="#0868aa"/><path d="m27.7394 18.185c0-.014-.0023-.0256-.0047-.0396-.0046-.0302-.0093-.0605-.014-.0907.007.0419.014.0861.0187.1279z" fill="#5abdb2"/><path d="m25.7754 14.6562c.0632.0536.1217.1094.1802.1629-.0608-.0558-.1193-.1117-.1802-.1629z" fill="#0868aa"/><path d="m25.7754 14.6562c.0632.0536.1217.1094.1802.1629-.0608-.0558-.1193-.1117-.1802-.1629z" fill="#5abdb2"/><path d="m27.7955 18.7946c0-.0279 0-.0558-.0023-.0837 0-.0372-.0047-.0721-.0071-.1093.0047.0628.0071.1279.0094.193z" fill="#0868aa"/><path d="m27.7955 18.7946c0-.0279 0-.0558-.0023-.0837 0-.0372-.0047-.0721-.0071-.1093.0047.0628.0071.1279.0094.193z" fill="#5abdb2"/><path d="m27.7207 19.9428c.0047-.0303.0094-.0605.014-.0908 0-.0116.0024-.0255.0047-.0395-.007.0419-.0117.0861-.0187.1279z" fill="#0868aa"/><path d="m27.7207 19.9428c.0047-.0303.0094-.0605.014-.0908 0-.0116.0024-.0255.0047-.0395-.007.0419-.0117.0861-.0187.1279z" fill="#5abdb2"/><path d="m27.7842 19.3962c.0023-.0372.0047-.0721.007-.1093 0-.0279 0-.0559.0023-.0838 0 .0652-.0046.128-.0093.1931z" fill="#0868aa"/><path d="m27.7842 19.3962c.0023-.0372.0047-.0721.007-.1093 0-.0279 0-.0559.0023-.0838 0 .0652-.0046.128-.0093.1931z" fill="#5abdb2"/><path d="m25.3611 14.335s-.0187-.0116-.0281-.0186c.0492.0326.0936.0698.1428.1047-.0398-.0279-.0749-.0605-.1147-.0884z" fill="#0868aa"/><path d="m25.3611 14.335s-.0187-.0116-.0281-.0186c.0492.0326.0936.0698.1428.1047-.0398-.0279-.0749-.0605-.1147-.0884z" fill="#5abdb2"/><path d="m27.6133 20.4363c.0047-.0139.007-.0279.0117-.0419 0-.0046 0-.0093.0023-.0116-.0047.0186-.0093.0372-.014.0558z" fill="#0868aa"/><path d="m27.6133 20.4363c.0047-.0139.007-.0279.0117-.0419 0-.0046 0-.0093.0023-.0116-.0047.0186-.0093.0372-.014.0558z" fill="#5abdb2"/><path d="m27.7768 19.5334s.0023-.0163.0023-.0256c.0023-.0373.0023-.0745.0047-.1094-.0024.0442-.0047.0908-.0094.135z" fill="#54a8de"/><path d="m27.7768 19.5334s.0023-.0163.0023-.0256c.0023-.0373.0023-.0745.0047-.1094-.0024.0442-.0047.0908-.0094.135z" fill="#5abdb2"/><path d="m26.8311 15.8347c-.014-.0233-.0281-.0465-.0421-.0675-.0234-.0325-.0468-.0628-.0702-.0953.0397.0535.0772.107.1123.1628z" fill="#54a8de"/><path d="m26.8311 15.8347c-.014-.0233-.0281-.0465-.0421-.0675-.0234-.0325-.0468-.0628-.0702-.0953.0397.0535.0772.107.1123.1628z" fill="#5abdb2"/><path d="m27.5684 20.6027s.0046-.014.007-.021c.014-.0488.0257-.0977.0374-.1442-.014.0558-.0281.1093-.0444.1652z" fill="#54a8de"/><path d="m27.5684 20.6027s.0046-.014.007-.021c.014-.0488.0257-.0977.0374-.1442-.014.0558-.0281.1093-.0444.1652z" fill="#5abdb2"/><path d="m27.3809 21.1381s.0093-.0186.014-.0302c.0258-.0652.0492-.1326.0726-.1977-.0281.0767-.0562.1512-.0866.2279z" fill="#54a8de"/><path d="m27.3809 21.1381s.0093-.0186.014-.0302c.0258-.0652.0492-.1326.0726-.1977-.0281.0767-.0562.1512-.0866.2279z" fill="#5abdb2"/><path d="m27.1332 21.6629c.007-.0163.0164-.0303.0257-.0442.0375-.0698.0703-.1419.103-.214 0 0 0 0 0-.0024-.0421.0884-.0842.1745-.131.2606z" fill="#54a8de"/><path d="m27.1332 21.6629c.007-.0163.0164-.0303.0257-.0442.0375-.0698.0703-.1419.103-.214 0 0 0 0 0-.0024-.0421.0884-.0842.1745-.131.2606z" fill="#5abdb2"/><path d="m27.6992 20.067s.0024-.0116.0047-.0186c.007-.0349.0094-.0698.0164-.107-.007.0419-.0117.0837-.0211.1233z" fill="#54a8de"/><path d="m27.6992 20.067s.0024-.0116.0047-.0186c.007-.0349.0094-.0698.0164-.107-.007.0419-.0117.0837-.0211.1233z" fill="#5abdb2"/><path d="m26.8311 22.1667c.014-.0209.028-.0396.0421-.0605.0445-.0698.0866-.1396.1287-.2117-.0538.0908-.1123.1815-.1708.2722z" fill="#54a8de"/><path d="m26.8311 22.1667c.014-.0209.028-.0396.0421-.0605.0445-.0698.0866-.1396.1287-.2117-.0538.0908-.1123.1815-.1708.2722z" fill="#5abdb2"/><path d="m27.1331 16.3367c-.0164-.0303-.0281-.0605-.0445-.0884-.0234-.0419-.0515-.0814-.0749-.1233.0421.0698.0819.1419.1194.2117z" fill="#54a8de"/><path d="m27.1331 16.3367c-.0164-.0303-.0281-.0605-.0445-.0884-.0234-.0419-.0515-.0814-.0749-.1233.0421.0698.0819.1419.1194.2117z" fill="#5abdb2"/><path d="m26.3701 15.2383c.0609.0674.1194.1349.1779.2047-.0562-.0698-.117-.1373-.1779-.2047z" fill="#54a8de"/><path d="m26.3701 15.2383c.0609.0674.1194.1349.1779.2047-.0562-.0698-.117-.1373-.1779-.2047z" fill="#5abdb2"/><path d="m25.4736 14.4219c.103.0767.206.1535.302.2326-.0983-.0814-.199-.1582-.302-.2326z" fill="#54a8de"/><path d="m25.4736 14.4219c.103.0767.206.1535.302.2326-.0983-.0814-.199-.1582-.302-.2326z" fill="#5abdb2"/><path d="m23.0039 13.3828c.0819.014.1662.0233.2481.0396-.0819-.0163-.1662-.028-.2481-.0396z" fill="#54a8de"/><path d="m23.0039 13.3828c.0819.014.1662.0233.2481.0396-.0819-.0163-.1662-.028-.2481-.0396z" fill="#5abdb2"/><path d="m25.958 14.8203c.0749.0698.1522.1396.2224.2117-.0726-.0721-.1475-.1419-.2224-.2117z" fill="#54a8de"/><path d="m25.958 14.8203c.0749.0698.1522.1396.2224.2117-.0726-.0721-.1475-.1419-.2224-.2117z" fill="#5abdb2"/><path d="m23.4883 13.4844c.1053.0256.2107.0512.3137.0837-.103-.0325-.2084-.0558-.3137-.0837z" fill="#54a8de"/><path d="m23.4883 13.4844c.1053.0256.2107.0512.3137.0837-.103-.0325-.2084-.0558-.3137-.0837z" fill="#5abdb2"/><path d="m27.3817 16.8628c-.0141-.0349-.0258-.0721-.0398-.107-.0211-.0511-.0492-.1-.0726-.1488 0-.0024-.0023-.007-.0047-.0093.0422.0883.082.1767.1171.2651z" fill="#54a8de"/><path d="m27.3817 16.8628c-.0141-.0349-.0258-.0721-.0398-.107-.0211-.0511-.0492-.1-.0726-.1488 0-.0024-.0023-.007-.0047-.0093.0422.0883.082.1767.1171.2651z" fill="#5abdb2"/><path d="m27.7001 17.9335c-.007-.0348-.0094-.0697-.0164-.1046-.014-.0721-.0374-.1396-.0538-.2117.0257.1047.0515.2093.0725.3163z" fill="#54a8de"/><path d="m27.7001 17.9335c-.007-.0348-.0094-.0697-.0164-.1046-.014-.0721-.0374-.1396-.0538-.2117.0257.1047.0515.2093.0725.3163z" fill="#5abdb2"/><path d="m27.5684 17.3969c-.0117-.0372-.0187-.0768-.0304-.114-.0211-.0651-.0468-.1279-.0702-.1931.0374.1024.0702.2047.1006.3071z" fill="#54a8de"/><path d="m27.5684 17.3969c-.0117-.0372-.0187-.0768-.0304-.114-.0211-.0651-.0468-.1279-.0702-.1931.0374.1024.0702.2047.1006.3071z" fill="#5abdb2"/><path d="m27.7773 18.469c-.0023-.0279-.0023-.0535-.0047-.0815-.007-.0674-.021-.1349-.0304-.2.014.093.0281.1884.0351.2815z" fill="#54a8de"/><path d="m27.7773 18.469c-.0023-.0279-.0023-.0535-.0047-.0815-.007-.0674-.021-.1349-.0304-.2.014.093.0281.1884.0351.2815z" fill="#5abdb2"/><path d="m27.8 19.0016c0-.0163 0-.0326 0-.0489 0-.0535-.007-.1046-.007-.1558.0023.0674.007.1372.007.2047z" fill="#54a8de"/><path d="m27.8 19.0016c0-.0163 0-.0326 0-.0489 0-.0535-.007-.1046-.007-.1558.0023.0674.007.1372.007.2047z" fill="#5abdb2"/></g></svg>