<?xml version="1.0" encoding="utf-8"?>
<!-- Generator: Adobe Illustrator 28.3.0, SVG Export Plug-In . SVG Version: 6.00 Build 0)  -->
<svg version="1.1" id="LayerX_Logo" xmlns="http://www.w3.org/2000/svg" xmlns:xlink="http://www.w3.org/1999/xlink" x="0px"
	 y="0px" viewBox="0 0 1176 433" style="enable-background:new 0 0 1176 433;" xml:space="preserve">
<style type="text/css">
	.st0{fill:#E60012;}
</style>
<g>
	<g>
		<path class="st0" d="M146.2,288.4c19.9,12.4,44,15.9,67.1,9.5c30-8.3,52.8-32.3,59.7-62.7c-3.8-15.2-11.6-29-22.8-39.9v0
			c-0.7-0.6-1.3-1.3-2-1.9c1.8,42-25.7,80.7-67,92.2C169.7,288.8,157.9,289.7,146.2,288.4z"/>
		<path class="st0" d="M165.6,135.8c-11.3,10.8-19.3,24.5-23.2,39.7c-0.2,0.9-0.4,1.8-0.7,2.7c15-9.5,32.1-14.2,49.1-14.2
			c23.3,0,46.6,8.8,64.3,26.1c8.5,8.3,15.2,18.1,19.9,28.9c0.7-23.4-8.2-46.1-25.3-62.9C227.5,134.3,195.3,126.6,165.6,135.8z"/>
		<path class="st0" d="M108.8,195.5c-7.8,30.1,1.6,61.9,24.4,83c15,4.3,30.9,4.4,46,0.2l0,0c0.9-0.2,1.8-0.5,2.7-0.8
			c-37.3-19.4-57.1-62.7-46.4-104.1c3-11.5,8.1-22.2,15.1-31.6C129.9,153.2,114.7,172.3,108.8,195.5z"/>
	</g>
	<g>
		<path class="st0" d="M342,265v-95h15.6l39.1,57.5l38.3-57.5h15.4v95h-17.8v-58.7c0-2.4,0.2-5.7,0.6-10.1c-2,4.8-3.6,8.1-4.8,10
			l-31.2,47.5h-3.9l-31.2-47.7c-2.2-3.4-3.9-6.7-5-9.8c0.3,3.8,0.4,7.2,0.4,10.1V265H342z"/>
		<path class="st0" d="M506.6,247.2H573V265h-85.6v-95h84.8v16.2h-65.6V247.2z"/>
		<path class="st0" d="M606.9,265v-95h53.3c15.3,0,27,4.1,35.2,12.4c8.1,8.2,12.2,19.8,12.2,34.6c0,9.4-1.9,18-5.6,25.8
			c-4.1,8.1-9.8,13.9-17,17.5c-6.6,3.2-16.5,4.8-29.7,4.8H606.9z M626.1,247.2h24.9c12.8,0,21.9-2.2,27.5-6.5
			c6.1-4.7,9.2-12.7,9.2-24.2c0-19.8-9.1-29.7-27.4-29.7h-34.3V247.2z"/>
		<path class="st0" d="M739.7,265v-95h19.2v77.2h62.2V265H739.7z"/>
		<path class="st0" d="M1007.5,265v-42.5l-43-52.5h25.7l28.4,36.5l28.6-36.5h22.7l-42.9,51.9V265H1007.5z"/>
		<polyline class="st0" points="506.6,209.4 561.1,209.4 561.1,225.6 506.6,225.6 		"/>
		<path class="st0" d="M871.9,247.2h66.4V265h-85.6v-95h84.8v16.2h-65.5V247.2z"/>
		<polyline class="st0" points="871.9,209.4 926.4,209.4 926.4,225.6 871.9,225.6 		"/>
	</g>
</g>
</svg>
