<svg width="124" height="21" viewBox="0 0 124 21" fill="none" xmlns="http://www.w3.org/2000/svg">
<path d="M9.66416 0.119629C7.40642 0.119629 5.52923 0.719242 4.12694 1.81454C3.02845 0.960686 1.63734 0.41224 0 0.213968V5.78317C0.783494 6.24368 1.22961 7.15349 1.27438 8.44226V19.755H6.98909H6.99389V8.51101C7.03866 6.54428 8.00603 5.4378 9.66576 5.4378C11.3255 5.4378 12.3424 6.59225 12.3424 8.65492V19.755H18.0571V8.43746C18.0555 3.30317 14.872 0.119629 9.66416 0.119629Z" fill="#111111"/>
<path d="M20.9976 10.2028C20.9976 4.16034 25.3404 0.0717773 30.9128 0.0717773C36.159 0.0717773 40.9719 3.65347 40.1756 11.6867H26.3893C26.9313 13.9668 28.7781 15.3419 31.3093 15.3419C33.3352 15.3419 35.0717 14.4737 36.4836 12.7004L40.174 15.7752C38.0394 18.5974 34.9997 20.19 31.2006 20.19C25.0861 20.19 20.9976 16.0647 20.9976 10.2028ZM34.8926 7.74203C34.4577 5.78809 33.0106 4.70239 30.876 4.70239C28.7414 4.70239 27.0768 5.89682 26.4612 7.74203H34.8926Z" fill="#111111"/>
<path d="M103.521 10.0959C103.521 4.19729 108.079 0 113.76 0C119.441 0 124 4.19729 124 10.0959C124 15.9945 119.441 20.1918 113.76 20.1918C108.079 20.1918 103.521 15.9945 103.521 10.0959ZM113.76 14.872C116.33 14.872 118.284 12.9548 118.284 10.0959C118.284 7.23693 116.33 5.31977 113.76 5.31977C111.191 5.31977 109.237 7.23693 109.237 10.0959C109.237 12.9548 111.191 14.872 113.76 14.872Z" fill="#111111"/>
<path d="M54.106 0.541992H59.8224V11.9762C59.8224 13.8214 60.7626 14.8703 62.2464 14.8703C63.7302 14.8703 64.6704 13.8214 64.6704 11.9762V0.541992H70.3867V11.9762C70.3867 13.8214 69.8783 20.1901 62.2928 20.1901C60.0478 20.1901 58.2634 19.6673 56.9378 18.6775C55.7514 19.5777 54.0789 20.1901 51.7268 20.1901C46.2855 20.1901 43.5369 17.1153 43.5369 11.7588V0.541992H49.2532V11.9762C49.2532 13.8214 50.1934 14.8703 51.6772 14.8703C53.1611 14.8703 54.1013 13.8214 54.1013 11.9762V0.541992H54.106Z" fill="#111111"/>
<path d="M79.3809 19.7071H73.6646V8.27445C73.6646 6.42924 74.173 0.0605469 81.7569 0.0605469C84.0019 0.0605469 85.7879 0.583409 87.1119 1.57317C88.2983 0.672952 89.9708 0.0605469 92.3229 0.0605469C97.7642 0.0605469 100.513 3.13536 100.513 8.49191V19.7087H94.7965V8.27445C94.7965 6.42924 93.8563 5.38031 92.3725 5.38031C90.8886 5.38031 89.9484 6.42924 89.9484 8.27445V19.7087H84.2321V8.27445C84.2321 6.42924 83.2919 5.38031 81.8081 5.38031C80.3243 5.38031 79.3841 6.42924 79.3841 8.27445V19.7087L79.3809 19.7071Z" fill="#111111"/>
</svg>
