<?xml version="1.0" encoding="utf-8"?>
<!-- Generator: Adobe Illustrator 26.0.3, SVG Export Plug-In . SVG Version: 6.00 Build 0)  -->
<svg version="1.1" id="レイヤー_1" xmlns="http://www.w3.org/2000/svg" xmlns:xlink="http://www.w3.org/1999/xlink" x="0px"
	 y="0px" viewBox="0 0 224.47 65.58" style="enable-background:new 0 0 224.47 65.58;" xml:space="preserve">
<style type="text/css">
	.st0{fill:none;}
	.st1{fill:#2ECC87;}
</style>
<g>
	<rect class="st0" width="224.47" height="65.58"/>
	<g>
		<path class="st1" d="M35.73,33.53c1.75,3.53,5.35,5.69,9.17,5.69c1.13,0,2.29-0.19,3.42-0.59l1.03-0.36l-1.7-2.26
			C44.82,32.26,39.7,31.27,35.73,33.53z"/>
		<path class="st1" d="M35.22,31.78c5.65-0.86,9.98-5.75,9.98-11.64v-2.01l-3.52,1.25C36.57,21.19,33.79,26.64,35.22,31.78z"/>
		<path class="st1" d="M34.23,34.84c-3.46,3.17-4.01,8.5-1.13,12.33l1.52,2.01l0.64-0.85C38.4,44.16,37.87,38.38,34.23,34.84z"/>
		<path class="st1" d="M33.24,31.91c1.53-5.86-1.66-12-7.47-14.06l-4.12-1.46v3.75C21.66,26.58,26.83,31.81,33.24,31.91z"/>
		<path class="st1" d="M21.97,40.87c4.61,0,8.93-2.73,10.82-7.14C28.31,30.79,22.26,31.8,19,36.14l-2.6,3.46l1.65,0.58
			C19.34,40.65,20.67,40.87,21.97,40.87z"/>
	</g>
	<path class="st1" d="M73.34,20.43c0,0.49-0.18,0.9-0.53,1.26c-0.35,0.35-0.78,0.53-1.29,0.53h-4.04c-0.15,0-0.22,0.07-0.22,0.22
		v22.72c0,0.49-0.18,0.9-0.53,1.26c-0.35,0.35-0.77,0.53-1.26,0.53c-0.49,0-0.9-0.18-1.26-0.53c-0.35-0.35-0.53-0.77-0.53-1.26
		V22.43c0-0.15-0.07-0.22-0.22-0.22h-4.04c-0.51,0-0.94-0.18-1.29-0.53c-0.35-0.35-0.53-0.77-0.53-1.26s0.18-0.9,0.53-1.26
		c0.35-0.35,0.78-0.53,1.29-0.53h12.09c0.51,0,0.94,0.18,1.29,0.53C73.17,19.52,73.34,19.94,73.34,20.43z"/>
	<path class="st1" d="M83.51,20.72c0,0.58-0.21,1.09-0.64,1.51c-0.43,0.43-0.93,0.64-1.51,0.64s-1.09-0.21-1.51-0.64
		c-0.43-0.42-0.64-0.93-0.64-1.51c0-0.61,0.21-1.12,0.64-1.53c0.42-0.41,0.93-0.62,1.51-0.62s1.09,0.21,1.51,0.62
		C83.3,19.6,83.51,20.11,83.51,20.72z M83.15,45.15c0,0.51-0.18,0.94-0.53,1.28s-0.77,0.51-1.26,0.51c-0.49,0-0.9-0.17-1.26-0.51
		c-0.35-0.34-0.53-0.77-0.53-1.28V27.53c0-0.49,0.18-0.91,0.53-1.26s0.77-0.53,1.26-0.53c0.49,0,0.9,0.18,1.26,0.53
		c0.35,0.35,0.53,0.77,0.53,1.26V45.15z"/>
	<path class="st1" d="M111.33,45.15c0,0.51-0.17,0.94-0.51,1.28c-0.34,0.34-0.76,0.51-1.27,0.51c-0.49,0-0.9-0.17-1.26-0.51
		c-0.35-0.34-0.53-0.77-0.53-1.28V31.8c0-0.68-0.24-1.27-0.73-1.75c-0.49-0.49-1.07-0.73-1.75-0.73s-1.26,0.24-1.75,0.73
		s-0.73,1.07-0.73,1.75v13.35c0,0.51-0.18,0.94-0.53,1.28s-0.77,0.51-1.26,0.51s-0.9-0.17-1.26-0.51c-0.35-0.34-0.53-0.77-0.53-1.28
		V31.8c0-0.68-0.24-1.27-0.73-1.75c-0.49-0.49-1.07-0.73-1.75-0.73s-1.26,0.24-1.75,0.73s-0.73,1.07-0.73,1.75v13.35
		c0,0.51-0.18,0.94-0.53,1.28s-0.77,0.51-1.26,0.51c-0.51,0-0.93-0.17-1.27-0.51s-0.51-0.77-0.51-1.28V31.81
		c0-1.68,0.59-3.11,1.77-4.29c1.18-1.18,2.6-1.77,4.28-1.77c1.58,0,2.95,0.55,4.11,1.64c0.05,0.05,0.1,0.07,0.15,0.07
		s0.1-0.02,0.15-0.07c1.17-1.09,2.54-1.64,4.12-1.64c1.67,0,3.1,0.59,4.28,1.77s1.77,2.61,1.77,4.29v13.34H111.33z"/>
	<path class="st1" d="M132.12,36.34c0,0.51-0.17,0.94-0.51,1.29c-0.34,0.35-0.76,0.53-1.27,0.53h-8.27c-0.15,0-0.22,0.06-0.22,0.18
		v1.82c0,0.9,0.32,1.67,0.96,2.31c0.64,0.64,1.41,0.97,2.31,0.97h0.15c1.29,0,2.25-0.57,2.88-1.71c0.34-0.63,0.86-0.95,1.57-0.95
		c0.51,0,0.93,0.18,1.27,0.53c0.34,0.35,0.51,0.77,0.51,1.26c0,0.32-0.07,0.61-0.22,0.87c-0.58,1.09-1.41,1.96-2.49,2.6
		s-2.25,0.97-3.51,0.97h-0.15c-1.89,0-3.51-0.67-4.84-2c-1.34-1.34-2-2.95-2-4.84v-7.61c0-1.89,0.67-3.51,2-4.86
		s2.95-2.02,4.84-2.02h0.15c1.89,0,3.51,0.67,4.84,2.02s2,2.97,2,4.86V36.34z M128.55,34.41v-1.83c0-0.93-0.32-1.72-0.96-2.36
		c-0.64-0.65-1.41-0.97-2.31-0.97h-0.15c-0.9,0-1.67,0.32-2.31,0.97s-0.96,1.44-0.96,2.36v1.83c0,0.12,0.07,0.18,0.22,0.18h6.26
		C128.48,34.59,128.55,34.53,128.55,34.41z"/>
	<path class="st1" d="M152.7,20.43c0,0.49-0.18,0.9-0.53,1.26c-0.35,0.35-0.78,0.53-1.29,0.53h-4.04c-0.15,0-0.22,0.07-0.22,0.22
		v22.72c0,0.49-0.18,0.9-0.53,1.26c-0.35,0.35-0.77,0.53-1.26,0.53s-0.9-0.18-1.26-0.53c-0.35-0.35-0.53-0.77-0.53-1.26V22.43
		c0-0.15-0.07-0.22-0.22-0.22h-4.04c-0.51,0-0.94-0.18-1.29-0.53c-0.35-0.35-0.53-0.77-0.53-1.26s0.18-0.9,0.53-1.26
		c0.35-0.35,0.78-0.53,1.29-0.53h12.09c0.51,0,0.94,0.18,1.29,0.53C152.52,19.52,152.7,19.94,152.7,20.43z"/>
	<path class="st1" d="M167.29,29.93c-0.19,0-0.39-0.03-0.58-0.1l-0.62-0.22c-0.44-0.2-0.9-0.3-1.39-0.3c-0.83,0-1.6,0.26-2.31,0.77
		c-1.12,0.8-1.69,1.9-1.69,3.29v11.78c0,0.51-0.17,0.94-0.52,1.28s-0.78,0.51-1.28,0.51c-0.48,0-0.9-0.17-1.24-0.51
		c-0.35-0.34-0.52-0.77-0.52-1.28V33.38c0-2.66,1.08-4.74,3.24-6.25c1.31-0.92,2.77-1.39,4.37-1.39c0.87,0,1.72,0.17,2.55,0.5
		l0.62,0.23c0.8,0.27,1.2,0.83,1.2,1.67c0,0.49-0.18,0.9-0.53,1.26C168.23,29.75,167.8,29.93,167.29,29.93z"/>
	<path class="st1" d="M187.39,36.34c0,0.51-0.17,0.94-0.51,1.29c-0.34,0.35-0.76,0.53-1.27,0.53h-8.27c-0.15,0-0.22,0.06-0.22,0.18
		v1.82c0,0.9,0.32,1.67,0.96,2.31c0.64,0.64,1.41,0.97,2.31,0.97h0.15c1.29,0,2.25-0.57,2.88-1.71c0.34-0.63,0.86-0.95,1.57-0.95
		c0.51,0,0.93,0.18,1.27,0.53c0.34,0.35,0.51,0.77,0.51,1.26c0,0.32-0.07,0.61-0.22,0.87c-0.58,1.09-1.41,1.96-2.49,2.6
		s-2.25,0.97-3.51,0.97h-0.15c-1.89,0-3.51-0.67-4.84-2c-1.34-1.34-2-2.95-2-4.84v-7.61c0-1.89,0.67-3.51,2-4.86
		s2.95-2.02,4.84-2.02h0.15c1.89,0,3.51,0.67,4.84,2.02s2,2.97,2,4.86V36.34z M183.82,34.41v-1.83c0-0.93-0.32-1.72-0.96-2.36
		c-0.64-0.65-1.41-0.97-2.31-0.97h-0.15c-0.9,0-1.67,0.32-2.31,0.97s-0.96,1.44-0.96,2.36v1.83c0,0.12,0.07,0.18,0.22,0.18h6.26
		C183.75,34.59,183.82,34.53,183.82,34.41z"/>
	<path class="st1" d="M208.07,36.34c0,0.51-0.17,0.94-0.51,1.29c-0.34,0.35-0.76,0.53-1.27,0.53h-8.27c-0.15,0-0.22,0.06-0.22,0.18
		v1.82c0,0.9,0.32,1.67,0.96,2.31c0.64,0.64,1.41,0.97,2.31,0.97h0.15c1.29,0,2.25-0.57,2.88-1.71c0.34-0.63,0.86-0.95,1.57-0.95
		c0.51,0,0.93,0.18,1.27,0.53c0.34,0.35,0.51,0.77,0.51,1.26c0,0.32-0.07,0.61-0.22,0.87c-0.58,1.09-1.41,1.96-2.49,2.6
		s-2.25,0.97-3.51,0.97h-0.15c-1.89,0-3.51-0.67-4.84-2c-1.34-1.34-2-2.95-2-4.84v-7.61c0-1.89,0.67-3.51,2-4.86
		s2.95-2.02,4.84-2.02h0.15c1.89,0,3.51,0.67,4.84,2.02s2,2.97,2,4.86V36.34z M204.5,34.41v-1.83c0-0.93-0.32-1.72-0.96-2.36
		c-0.64-0.65-1.41-0.97-2.31-0.97h-0.15c-0.9,0-1.67,0.32-2.31,0.97s-0.96,1.44-0.96,2.36v1.83c0,0.12,0.07,0.18,0.22,0.18h6.26
		C204.43,34.59,204.5,34.53,204.5,34.41z"/>
</g>
</svg>
