<svg width="171" height="40" viewBox="0 0 171 40" fill="none" xmlns="http://www.w3.org/2000/svg">
<g clip-path="url(#clip0_19897_7440)">
<path d="M169.861 11.5724H165.967C165.51 11.5724 165.118 11.8425 164.935 12.2353L159.437 24.0287L154.543 12.2727C154.371 11.8613 153.966 11.5724 153.495 11.5724H149.603C148.974 11.5724 148.464 12.0878 148.464 12.7237C148.464 12.8816 148.495 13.0333 148.552 13.1684L156.07 31.2439L152.813 38.2327C152.737 38.3864 152.694 38.561 152.694 38.746C152.694 39.3819 153.203 39.8972 153.832 39.8972H157.733C158.216 39.8972 158.629 39.5938 158.794 39.1637L170.908 13.1705C170.965 13.0333 170.998 12.8816 170.998 12.7216C170.998 12.0857 170.488 11.5703 169.859 11.5703L169.861 11.5724Z" fill="#3F3F41"/>
<path d="M142.468 3.44531H138.634C138.006 3.44531 137.496 3.96069 137.496 4.85844V14.1871C135.675 12.5745 133.293 11.5957 130.683 11.5957C124.965 11.5957 120.33 16.2819 120.33 22.0632V24.8666C120.33 30.648 124.965 35.3342 130.683 35.3342C133.293 35.3342 135.675 34.3554 137.496 32.7427V33.7901C137.496 34.1642 138.006 34.6795 138.634 34.6795H142.468C143.096 34.6795 143.606 34.1642 143.606 33.5283V4.59659C143.606 3.96069 143.096 3.44531 142.468 3.44531ZM131.973 30.6833C128.194 30.6833 126.451 27.0279 126.451 23.9689V23.6011C126.451 20.5421 128.12 16.8866 131.973 16.8866C135.827 16.8866 137.471 20.4922 137.496 23.5387V24.0354C137.471 27.0798 135.802 30.6833 131.973 30.6833Z" fill="#3F3F41"/>
<path d="M105.726 11.5971H104.88C102.514 11.5971 100.335 12.4075 98.5987 13.7666V12.7255C98.5987 12.0896 98.0889 11.5742 97.46 11.5742H93.6269C92.998 11.5742 92.4883 12.0896 92.4883 12.7255V33.5338C92.4883 34.1697 92.998 34.6851 93.6269 34.6851H97.46C98.0889 34.6851 98.5987 34.1697 98.5987 33.5338V21.5825C98.5987 18.7728 100.851 16.4973 103.628 16.4973C106.405 16.4973 108.657 18.7749 108.657 21.5825V33.5338C108.657 34.1697 109.167 34.6851 109.796 34.6851H113.629C114.258 34.6851 114.768 34.1697 114.768 33.5338V20.3501C114.768 15.2089 110.468 11.6511 105.726 11.5992V11.5971Z" fill="#3F3F41"/>
<path d="M85.1299 4.59659V8.45983C85.1299 9.09574 84.6202 9.61111 83.9913 9.61111H80.1582C79.5292 9.61111 79.0195 9.09574 79.0195 8.45983V4.59659C79.0195 3.96069 79.5292 3.44531 80.1582 3.44531H83.9913C84.6202 3.44531 85.1299 3.96069 85.1299 4.59659ZM83.9913 11.5708H80.1582C79.5292 11.5708 79.0195 12.0862 79.0195 12.7221V33.5303C79.0195 34.1662 79.5292 34.6816 80.1582 34.6816H83.9913C84.6202 34.6816 85.1299 34.1662 85.1299 33.5303V12.7221C85.1299 12.0862 84.6202 11.5708 83.9913 11.5708Z" fill="#3F3F41"/>
<path d="M71.7771 3.43359H52.0566C51.4277 3.43359 50.918 3.94897 50.918 4.58488V33.5186C50.918 34.1545 51.4277 34.6699 52.0566 34.6699H55.8897C56.5186 34.6699 57.0283 34.1545 57.0283 33.5186V23.8948H69.1915C69.8205 23.8948 70.3302 23.3794 70.3302 22.7435V18.8678C70.3302 18.2319 69.8205 17.7166 69.1915 17.7166H57.0283V9.61186H71.7771C72.406 9.61186 72.9157 9.09649 72.9157 8.46058V4.58488C72.9157 3.94897 72.406 3.43359 71.7771 3.43359Z" fill="#3F3F41"/>
<path d="M36.9027 18.6553C36.9027 8.35198 28.6404 0 18.4503 0C8.2602 0 0 8.35198 0 18.6553C0 28.9587 8.2602 37.3107 18.4503 37.3107C22.6863 37.3107 26.5872 35.8664 29.701 33.4412L33.5135 37.3003L36.8863 33.8901L33.0737 30.031C35.4722 26.8826 36.9007 22.9383 36.9007 18.6553H36.9027ZM5.40541 18.6595C5.40541 11.3715 11.2486 5.46339 18.4565 5.46339C25.6644 5.46339 31.5076 11.3715 31.5076 18.6595C31.5076 22.3024 30.0483 25.6004 27.6868 27.9882H27.6847C25.3232 30.378 22.0615 31.8535 18.4585 31.8535C11.2506 31.8535 5.40746 25.9454 5.40746 18.6574L5.40541 18.6595Z" fill="#A5A5A4"/>
<path d="M18.4503 0C11.2075 0 4.94091 4.22067 1.92169 10.3615C0.692632 12.8594 0 15.6753 0 18.6553C0 22.6038 1.21262 26.2633 3.2823 29.2787C3.2823 29.2787 3.28435 29.2829 3.28641 29.2849C3.47344 29.5592 3.66869 29.8273 3.87011 30.0892C3.87011 30.0892 3.87216 30.0933 3.87422 30.0933C3.97287 30.2222 4.07358 30.351 4.17635 30.4757C4.18046 30.4819 4.18662 30.4882 4.19279 30.4944C4.39421 30.7417 4.60179 30.9848 4.81554 31.2218C4.82787 31.2342 4.83815 31.2488 4.85048 31.2612C5.06012 31.4919 5.27387 31.7163 5.49584 31.9366C5.50406 31.9449 5.51228 31.9532 5.52051 31.9616C6.89138 33.3248 8.4719 34.4719 10.2086 35.351C12.2619 34.528 14.0582 33.1918 15.4455 31.5023C11.598 30.5838 8.40613 27.9425 6.71463 24.4284C8.23554 21.2696 10.9691 18.8153 14.3007 17.6848C14.6028 15.7293 15.2359 13.886 16.1381 12.2111C11.9453 12.7576 8.20471 14.7692 5.43829 17.7222C5.6356 14.8877 6.71668 12.3004 8.40819 10.241C10.8026 7.32331 14.4137 5.46547 18.4565 5.46547C19.6712 5.46547 20.8468 5.6338 21.9628 5.94759C24.0798 4.60097 26.5173 3.71777 29.1317 3.44137C26.1166 1.27389 22.4314 0 18.4503 0Z" fill="#155AA8"/>
</g>
<defs>
<clipPath id="clip0_19897_7440">
<rect width="171" height="39.9" fill="white"/>
</clipPath>
</defs>
</svg>
